<?xml version="1.0" standalone="no"?>
<!DOCTYPE svg PUBLIC "-//W3C//DTD SVG 20010904//EN"
 "http://www.w3.org/TR/2001/REC-SVG-20010904/DTD/svg10.dtd">
<svg version="1.0" xmlns="http://www.w3.org/2000/svg"
 width="300.000000pt" height="300.000000pt" viewBox="0 0 300.000000 300.000000"
 preserveAspectRatio="xMidYMid meet">
<metadata>
Created by potrace 1.10, written by Peter Selinger 2001-2011
</metadata>
<g transform="translate(0.000000,300.000000) scale(0.100000,-0.100000)"
fill="#000000" stroke="none">
<path d="M1439 2876 c-2 -2 -24 -6 -49 -9 -51 -7 -195 -42 -225 -56 -300 -137
-382 -200 -571 -434 -8 -9 -14 -21 -14 -26 0 -5 -11 -28 -24 -52 -38 -69 -60
-164 -57 -252 2 -65 7 -88 30 -131 28 -51 28 -53 9 -65 -15 -9 -18 -21 -16
-61 2 -28 7 -50 11 -50 11 0 -2 -81 -15 -98 -6 -7 -18 -11 -26 -10 -9 2 -22
-8 -29 -22 -16 -32 -37 -28 -85 19 -40 40 -48 61 -23 61 8 0 15 -4 15 -8 0 -5
14 -9 31 -9 45 0 93 48 84 84 -16 65 -118 150 -148 124 -7 -5 -16 -9 -22 -8
-5 1 -18 -15 -29 -35 -18 -36 -21 -37 -38 -21 -22 20 -23 10 -2 -22 14 -22 14
-25 1 -25 -19 0 -41 26 -32 40 3 5 1 10 -4 10 -15 0 -14 -22 4 -46 8 -12 12
-24 8 -27 -9 -10 -21 -87 -12 -81 5 3 9 -8 9 -24 0 -21 -6 -31 -20 -35 -11 -3
-23 -13 -26 -24 -3 -10 -10 -26 -15 -36 -12 -22 5 -57 27 -57 9 0 18 9 21 20
3 11 12 20 20 20 8 0 17 9 20 20 3 11 8 20 12 20 11 -1 71 -59 71 -70 0 -5 5
-10 10 -10 6 0 10 -9 10 -19 0 -11 5 -23 10 -26 6 -3 10 -1 10 6 0 16 11 5 14
-14 1 -8 9 -26 18 -40 16 -24 16 -26 0 -33 -9 -4 -21 -8 -27 -9 -5 0 -19 -6
-31 -12 -21 -12 -44 -2 -44 20 0 11 -51 56 -65 58 -5 1 -17 2 -25 3 -20 2 -80
-53 -80 -73 0 -9 10 -44 22 -78 21 -58 21 -63 5 -81 -23 -25 -21 -55 4 -78 12
-10 23 -18 25 -16 13 8 36 -1 61 -24 15 -14 24 -24 18 -21 -5 2 -21 -6 -34
-19 -21 -20 -22 -24 -8 -29 27 -11 52 -1 55 23 3 19 6 20 24 11 29 -16 35 -3
12 29 -13 17 -41 34 -75 45 -30 10 -60 24 -68 32 -17 17 -8 45 15 45 24 0 131
-59 166 -92 32 -30 32 -51 1 -27 -15 11 -15 10 1 -9 22 -25 59 -31 50 -7 -4 8
-1 15 5 15 6 0 11 5 11 10 0 6 -6 9 -12 8 -8 -2 -12 5 -10 18 2 13 -4 24 -13
28 -9 3 -13 10 -10 16 3 5 1 10 -4 10 -6 0 -11 -5 -11 -12 0 -6 -9 -3 -21 8
-12 10 -24 17 -27 15 -4 -2 -10 3 -16 11 -6 11 -1 24 19 46 26 29 29 30 49 17
23 -17 76 -20 76 -5 0 6 9 10 20 10 11 0 20 -6 20 -14 0 -8 3 -22 6 -30 4 -12
2 -15 -9 -11 -18 8 -47 -20 -47 -46 0 -11 7 -22 15 -25 8 -4 12 -10 9 -15 -3
-5 3 -6 12 -2 13 5 16 3 11 -10 -6 -16 -2 -18 56 -31 37 -9 34 -19 -11 -39
l-38 -17 41 -45 c23 -24 62 -82 86 -127 28 -52 51 -84 63 -86 17 -4 18 1 13
40 -6 43 -83 219 -119 271 -11 15 -28 27 -38 27 -26 0 -80 48 -80 72 0 17 4
16 32 -13 35 -38 47 -28 29 22 -9 26 -8 30 4 25 24 -9 18 10 -34 107 -27 51
-54 110 -61 131 -8 25 -38 65 -82 110 -94 96 -130 168 -93 182 21 8 43 -12 67
-63 12 -27 38 -56 69 -78 30 -21 58 -53 73 -82 34 -63 46 -76 148 -156 48 -37
101 -88 118 -112 34 -50 67 -72 82 -57 6 6 -10 39 -47 95 -37 56 -59 99 -62
126 -3 23 -9 41 -14 41 -4 0 -17 9 -28 21 -24 26 -71 22 -86 -7 -10 -21 -11
-21 -42 10 -18 17 -36 42 -41 56 -9 24 -8 25 27 24 20 -1 43 -4 51 -8 8 -3 35
-7 60 -8 40 -3 47 -7 61 -38 10 -19 15 -38 13 -42 -2 -4 0 -9 6 -13 5 -3 10
-17 10 -30 0 -12 17 -47 37 -76 20 -30 54 -80 76 -112 27 -40 42 -55 48 -46 6
10 11 10 22 1 7 -7 17 -9 20 -5 4 3 9 -2 13 -11 4 -11 0 -22 -12 -31 -18 -14
-18 -14 1 -15 11 -1 15 -4 8 -6 -8 -4 -8 -12 3 -32 8 -15 14 -37 14 -48 0 -12
11 -42 25 -65 14 -24 30 -61 36 -82 13 -50 70 -113 92 -104 23 9 21 33 -8 92
-29 59 -32 100 -9 109 14 5 15 4 5 -8 -9 -11 -9 -22 4 -52 15 -36 16 -37 31
-18 15 18 15 18 5 -1 -7 -16 -5 -27 10 -45 10 -14 19 -41 19 -60 0 -23 -3 -31
-9 -21 -7 11 -9 11 -13 0 -3 -8 6 -27 19 -43 13 -16 33 -47 45 -70 24 -50 121
-197 125 -192 7 7 -29 86 -37 81 -4 -2 -22 25 -40 61 -19 36 -46 82 -61 102
-26 35 -26 37 -13 82 22 72 18 94 -26 145 -22 25 -40 51 -40 56 0 6 -4 7 -10
4 -5 -3 -10 0 -10 9 0 8 -3 22 -7 32 -3 9 26 -16 67 -57 86 -88 95 -106 80
-171 -9 -37 -9 -60 0 -99 15 -62 23 -59 11 4 -5 29 -4 64 2 93 9 37 7 59 -7
114 -15 61 -16 71 -2 104 18 43 31 47 23 7 -3 -15 -2 -32 3 -37 4 -5 10 -18
13 -29 3 -11 5 6 6 38 1 38 5 56 12 52 6 -4 9 -40 8 -88 -1 -45 2 -113 6 -152
7 -67 7 -69 -11 -53 -9 10 -21 37 -25 60 l-6 43 -2 -37 c0 -20 4 -60 10 -88 8
-39 15 -50 27 -48 28 5 37 68 22 146 -8 45 -10 93 -5 138 l7 68 14 -33 c8 -18
14 -53 14 -77 0 -27 9 -63 24 -92 16 -30 27 -74 32 -122 4 -41 11 -86 15 -100
5 -14 6 2 2 40 -5 61 8 143 25 154 4 2 5 -28 4 -67 -2 -40 0 -68 4 -64 5 5 11
65 15 135 4 94 11 137 24 164 10 21 22 38 27 38 4 0 8 12 8 28 l-1 27 -14 -25
c-8 -15 -14 -19 -14 -10 -1 27 16 42 53 46 l35 4 0 -76 c-1 -97 -17 -147 -20
-59 -1 33 -5 74 -9 90 -7 26 -8 24 -9 -19 0 -26 -9 -70 -18 -97 -20 -54 -11
-101 21 -107 16 -3 16 -2 -3 17 -22 22 -27 56 -11 81 7 11 10 5 10 -22 0 -50
23 -50 43 0 24 61 29 106 17 151 -14 54 -7 63 16 19 14 -25 18 -55 17 -128 0
-74 1 -86 8 -53 4 23 15 62 23 88 9 25 16 51 16 57 0 17 -17 -3 -23 -27 -4
-19 -5 -19 -6 1 0 12 -8 35 -16 50 -13 26 -13 29 3 35 9 3 26 6 37 5 27 -1 31
-50 10 -135 -12 -50 -13 -74 -6 -94 23 -60 65 -17 82 84 14 77 28 98 31 43 3
-81 -4 -131 -28 -183 -13 -29 -24 -67 -24 -85 l0 -31 20 30 c53 79 62 114 55
220 -4 62 -3 110 4 128 13 33 35 37 27 5 l-6 -23 11 23 c12 22 39 31 39 11 0
-6 -11 -29 -24 -52 -31 -54 -38 -90 -28 -152 l8 -50 7 54 c4 33 17 71 37 100
16 26 33 69 36 94 7 46 6 47 -22 48 -16 1 -50 3 -76 4 l-47 2 2 -41 c2 -35 -1
-41 -18 -41 -17 0 -20 6 -18 41 l2 42 -62 6 c-65 6 -78 5 -141 -8 -65 -14 -18
-26 56 -15 44 7 77 7 99 0 32 -9 31 -10 -21 -9 -30 0 -76 -3 -101 -7 -29 -4
-55 -3 -67 4 -32 17 -52 4 -46 -29 7 -30 -10 -70 -28 -70 -7 0 -25 12 -40 27
-25 24 -41 22 -20 -3 13 -13 34 -172 26 -186 -13 -20 -32 53 -33 122 -1 91
-16 110 -84 109 -85 -2 -101 -10 -108 -52 -8 -53 -16 -55 -29 -8 -8 30 -19 45
-38 54 -15 6 -30 16 -34 22 -5 6 -8 6 -8 -2 0 -6 -9 -9 -22 -5 -18 4 -20 2
-13 -14 25 -60 28 -73 22 -88 -15 -40 -47 -8 -88 90 -16 38 -32 87 -35 109 -3
22 -7 52 -9 68 -4 24 -1 27 23 27 26 0 27 -2 28 -52 2 -83 7 -108 21 -96 7 5
35 7 62 4 32 -3 51 -1 51 5 0 6 7 3 16 -5 18 -19 45 -21 62 -4 9 9 15 9 24 0
7 -7 17 -12 23 -12 5 0 3 5 -5 11 -11 8 -4 9 27 7 24 -2 44 0 46 5 1 5 26 9
55 10 29 0 55 4 58 9 3 4 23 8 45 8 24 0 38 4 34 10 -3 5 0 7 8 4 8 -3 18 0
22 5 3 6 10 9 15 6 5 -3 11 -1 15 5 3 5 11 10 16 10 6 0 8 -4 5 -9 -4 -5 3 -7
15 -4 16 5 18 8 7 15 -9 6 -4 8 17 7 52 -2 62 0 46 10 -9 6 2 11 35 16 52 7
101 28 97 42 -2 4 9 12 25 16 15 5 34 11 42 14 8 4 18 5 23 5 4 -1 7 3 7 9 0
5 5 7 11 4 6 -4 19 2 30 14 11 12 25 18 31 15 7 -4 8 -2 4 4 -5 8 0 12 13 12
12 0 21 6 21 13 0 7 9 13 20 14 18 2 37 14 98 64 6 5 12 7 12 4 0 -3 8 2 18
10 9 8 33 29 52 45 33 29 34 30 10 27 -14 -1 -37 -14 -52 -27 -40 -38 -62 -56
-63 -50 0 3 -13 -5 -29 -17 -15 -12 -25 -27 -21 -32 3 -7 0 -8 -9 -5 -14 5
-114 -41 -127 -60 -4 -5 -12 -5 -18 -2 -6 4 -11 3 -11 -2 0 -5 -15 -15 -32
-22 -18 -7 -46 -19 -63 -26 -40 -17 -98 -40 -110 -44 -5 -2 -24 -9 -42 -17
-18 -7 -44 -13 -58 -13 -14 0 -25 -5 -25 -11 0 -6 -6 -9 -14 -6 -8 3 -17 3
-20 -1 -4 -3 -19 -8 -34 -10 -15 -2 -29 -6 -32 -10 -3 -4 -16 -8 -30 -10 -14
-1 -45 -7 -70 -12 -82 -18 -104 -20 -190 -20 -137 -1 -170 13 -170 71 0 30 4
38 23 43 39 10 70 6 114 -15 59 -29 87 -23 91 19 3 25 8 32 25 32 12 0 55 9
95 20 39 11 84 20 99 20 25 -1 26 -2 11 -14 -25 -18 -23 -29 2 -16 12 6 25 21
30 34 6 16 27 29 72 45 110 40 319 146 431 220 l108 72 30 -26 c34 -28 42 -30
71 -14 17 9 19 19 16 69 -3 56 -2 59 43 107 25 26 54 61 64 76 32 49 7 41 -44
-13 -51 -57 -63 -48 -27 19 14 26 20 31 27 20 8 -13 10 -12 13 12 0 6 9 16 19
23 18 14 25 42 7 31 -14 -9 -12 18 3 34 10 11 9 12 -1 6 -8 -4 -13 -2 -11 6 5
38 -4 61 -36 92 -34 33 -48 58 -22 41 7 -5 4 -1 -6 9 -11 10 -17 21 -13 24 9
10 68 -54 92 -97 12 -23 18 -55 18 -95 -1 -45 4 -64 19 -80 31 -33 57 -103 57
-157 0 -102 -98 -231 -280 -365 -52 -39 -102 -79 -111 -89 -17 -20 -33 -66
-43 -124 l-6 -35 38 40 c20 23 52 62 69 88 24 34 61 66 135 113 57 37 139 101
183 143 44 42 101 94 128 115 26 21 63 62 82 92 51 80 142 119 161 70 6 -15
-168 -194 -249 -259 -22 -17 -57 -66 -89 -125 -71 -131 -75 -141 -87 -219 -6
-38 -13 -79 -17 -93 l-7 -25 31 28 c17 17 33 44 37 65 15 79 49 123 141 180
53 33 78 39 89 21 11 -17 -26 -50 -91 -80 -62 -28 -104 -68 -104 -98 -1 -9 -9
-40 -19 -69 -14 -42 -15 -52 -4 -52 17 0 53 58 53 88 0 12 5 22 11 22 20 0 3
-78 -25 -115 -15 -19 -53 -48 -87 -66 -33 -18 -71 -45 -85 -61 -24 -29 -31
-49 -16 -47 18 3 22 -2 10 -15 -7 -8 -17 -11 -22 -8 -5 3 -6 0 -3 -5 4 -6 1
-13 -7 -16 -19 -8 7 98 33 134 22 30 17 40 -32 58 -35 14 -34 37 3 56 16 8 37
27 47 41 19 30 45 154 32 154 -5 0 -10 -8 -10 -17 -1 -10 -2 -22 -4 -28 -1 -5
-3 -22 -3 -38 -2 -19 -21 -48 -62 -92 -33 -35 -60 -66 -60 -67 -1 -2 -7 -43
-15 -92 -13 -85 -15 -91 -57 -131 -47 -45 -110 -148 -67 -110 11 11 25 31 30
44 13 34 22 20 9 -15 -9 -27 -9 -28 5 -10 8 11 15 25 15 31 0 6 13 29 30 51
16 21 39 68 50 104 11 36 24 71 29 79 7 10 4 19 -7 28 -14 11 -13 11 11 1 20
-8 26 -16 21 -27 -9 -22 -23 -105 -18 -113 8 -12 -44 -190 -60 -206 -15 -15
-16 -15 -16 3 -1 19 -1 19 -13 -1 -7 -11 -28 -41 -48 -65 -20 -24 -42 -62 -49
-84 -13 -43 -43 -81 -69 -90 -16 -5 -51 -54 -51 -72 0 -4 9 7 20 24 20 33 47
46 36 18 -9 -23 8 -18 36 12 15 16 32 48 38 73 9 35 29 64 95 132 65 69 85 96
90 125 7 42 29 82 89 163 34 45 41 50 46 34 7 -19 -9 -69 -18 -59 -6 6 -38
-37 -34 -48 1 -4 -1 -6 -5 -6 -19 3 -33 -2 -33 -11 0 -5 10 -10 22 -10 14 0
47 27 94 77 l73 78 -25 13 c-33 17 -30 26 12 41 28 10 33 15 23 23 -10 7 -8 8
9 5 23 -5 30 10 12 31 -7 9 -7 9 2 2 17 -14 32 -13 21 2 -5 7 -10 29 -12 48
-2 19 -7 40 -12 46 -11 14 5 64 21 64 21 0 25 2 40 14 8 8 23 12 32 11 10 -2
16 1 15 7 -1 6 8 12 20 14 15 2 24 -2 28 -15 3 -11 17 -26 30 -35 31 -21 70
-5 92 37 14 27 13 32 -4 55 -26 35 -47 46 -69 38 -11 -4 -19 -6 -20 -4 0 2 -8
-3 -17 -10 -13 -11 -16 -10 -19 10 -5 39 -57 36 -136 -9 -37 -21 -70 -40 -75
-41 -18 -8 20 60 56 99 9 10 17 25 17 32 0 14 77 90 102 99 13 5 18 0 23 -22
8 -35 49 -71 76 -67 10 2 32 13 49 25 58 43 32 132 -37 132 -35 0 -28 18 32
81 59 61 69 94 38 121 -22 19 -98 35 -88 19 3 -6 -1 -11 -10 -11 -20 0 -87
-62 -106 -98 -20 -38 -37 -54 -49 -47 -6 4 -10 14 -9 23 4 40 -1 50 -21 45
-12 -3 -22 1 -26 11 -3 9 -10 14 -15 11 -4 -3 -11 11 -15 32 -6 35 -31 91 -45
103 -13 11 -28 48 -22 54 4 3 17 -3 29 -15 14 -13 31 -20 43 -16 15 3 18 1 14
-11 -4 -10 -2 -13 5 -8 16 9 15 -7 0 -22 -9 -9 -9 -15 2 -24 8 -7 12 -9 8 -4
-11 13 10 46 29 46 14 0 13 -3 -2 -26 -16 -25 -16 -26 2 -22 27 5 24 52 -4 56
-22 3 -21 4 8 50 42 67 37 103 -16 114 -27 6 -72 -17 -80 -42 -8 -26 -45 -27
-45 -1 0 17 20 33 45 35 12 1 35 45 35 69 0 58 -61 78 -96 32 -21 -28 -44 -33
-44 -10 0 8 4 15 10 15 16 0 32 41 26 66 -8 29 -40 32 -68 7 -14 -13 -18 -13
-19 -2 -1 8 -3 23 -4 34 -1 11 2 32 7 45 l9 25 32 -38 c41 -49 85 -56 138 -22
33 21 37 30 53 102 20 93 13 124 -33 148 -64 33 -116 9 -152 -71 -13 -30 -25
-54 -26 -54 -8 0 -41 39 -37 44 2 3 1 4 -2 1 -14 -9 -45 17 -58 50 -18 41 -46
58 -89 50 -41 -7 -50 0 -66 55 -9 33 -28 59 -68 97 -95 89 -198 123 -389 129
-67 2 -123 2 -125 0z m254 -40 c42 -8 102 -27 134 -42 102 -49 193 -153 164
-187 -6 -8 -109 -60 -228 -117 -120 -57 -327 -159 -461 -227 -134 -68 -248
-120 -254 -117 -7 5 -8 2 -3 -6 6 -10 4 -12 -9 -7 -10 4 -15 3 -11 -3 3 -5
-21 -23 -54 -40 -60 -30 -90 -39 -61 -19 13 9 13 10 0 6 -8 -2 -14 -9 -13 -16
4 -14 -74 -54 -89 -45 -6 4 -8 3 -5 -4 8 -12 -181 -112 -213 -112 -43 0 -71
130 -50 235 6 33 13 69 15 80 4 25 65 134 110 195 47 64 178 187 250 235 242
160 546 235 778 191z m365 -274 c2 -7 -2 -10 -12 -6 -12 4 -15 2 -11 -9 14
-35 -83 -75 -113 -45 -17 17 14 48 48 48 15 0 33 7 40 15 15 18 41 16 48 -3z
m84 1 c33 -39 28 -83 -9 -83 -13 0 -13 3 -3 15 15 19 5 65 -15 65 -20 0 -20
-46 0 -84 8 -15 15 -29 15 -31 0 -4 -174 6 -187 10 -29 10 -10 24 27 20 37 -3
42 -1 86 51 50 58 63 64 86 37z m321 -20 c21 -19 21 -41 2 -113 -16 -62 -43
-90 -88 -90 -39 0 -67 25 -67 61 0 43 39 137 63 154 25 18 62 12 90 -12z
m-562 -75 c27 -52 20 -75 -37 -132 -58 -58 -180 -118 -307 -152 -80 -21 -116
-25 -197 -22 -97 3 -120 -4 -59 -17 l32 -7 -30 -14 c-29 -15 -63 -61 -63 -86
0 -7 8 -2 16 12 30 47 65 65 124 64 30 0 66 -6 80 -14 14 -8 29 -13 33 -12 5
1 6 -2 2 -8 -3 -5 0 -7 9 -4 19 7 163 -53 170 -72 3 -8 15 -14 26 -14 22 0 35
22 27 44 -5 12 -11 13 -36 3 -26 -10 -33 -8 -53 10 -31 28 -64 44 -101 49 -83
10 -40 52 58 56 57 2 73 7 90 26 11 12 31 23 45 24 34 3 139 -58 152 -87 12
-27 46 -38 83 -29 32 8 32 18 0 32 -33 15 -42 15 -27 0 7 -7 12 -16 12 -20 0
-21 -28 -3 -90 58 l-68 67 33 28 c32 28 34 29 136 25 84 -4 106 -8 116 -22 17
-24 16 -34 -7 -69 -11 -16 -30 -45 -41 -63 -26 -40 -47 -52 -94 -52 -28 0 -44
7 -66 31 -23 24 -34 30 -54 25 -29 -7 -32 -26 -9 -61 20 -31 5 -61 -41 -81
-51 -21 -89 -17 -124 12 -25 21 -34 23 -51 14 -24 -13 -25 -27 -4 -68 11 -24
12 -36 4 -51 -20 -38 -79 -53 -120 -31 -20 11 -40 60 -40 98 0 14 -3 23 -6 19
-7 -6 -34 16 -34 28 0 10 28 35 39 35 6 0 11 -5 11 -11 0 -8 6 -7 17 2 11 10
14 10 9 2 -9 -16 -1 -16 25 -3 27 15 24 -2 -5 -29 -31 -29 -40 -67 -25 -103 9
-23 17 -28 43 -27 28 0 29 1 9 9 -13 5 -23 16 -23 25 0 8 -4 15 -10 15 -14 0
-13 37 2 46 8 5 9 2 4 -11 -7 -18 -6 -18 14 0 20 18 20 18 20 -5 0 -15 5 -20
14 -17 17 7 28 -16 19 -40 -5 -17 -5 -17 12 -1 16 15 16 18 -14 61 -17 25 -31
54 -31 64 0 10 -5 25 -10 33 -9 13 -10 13 -10 0 -1 -12 -3 -11 -11 3 -15 25
-92 24 -119 -3 -29 -29 -30 -78 -2 -120 9 -14 15 -29 14 -35 -2 -6 0 -6 7 0
11 11 4 55 -10 55 -4 0 -7 9 -6 20 1 11 4 20 8 20 16 0 29 -30 35 -82 8 -72
-5 -81 -103 -71 -64 8 -69 10 -82 41 -20 45 -52 51 -100 19 -39 -26 -51 -26
-51 1 0 9 3 13 6 9 3 -3 19 10 36 29 36 41 75 45 128 13 19 -12 48 -22 64 -23
l30 -2 -29 20 c-16 12 -40 31 -53 44 -19 18 -27 21 -38 11 -8 -7 -17 -9 -20
-6 -8 8 6 48 15 43 3 -3 14 15 23 40 8 24 13 44 9 43 -3 0 -24 -26 -47 -58
-98 -137 -366 -280 -485 -257 -28 5 -43 16 -63 46 -14 22 -26 41 -26 44 0 2
33 4 73 4 39 0 83 4 97 10 19 8 10 9 -40 5 -72 -5 -68 11 5 23 50 8 165 53
165 65 0 4 -7 12 -16 17 -14 8 -11 12 18 21 19 6 42 9 51 5 12 -4 17 -1 17 10
0 10 6 13 15 10 10 -4 34 11 66 41 28 26 53 44 56 41 10 -10 -57 -73 -124
-118 -73 -48 -82 -60 -21 -26 23 13 81 60 128 105 47 46 89 83 94 83 5 0 15
-8 22 -17 12 -17 13 -17 14 3 0 13 15 33 35 49 34 25 106 44 233 59 19 2 37 7
40 11 4 4 -7 4 -24 1 -46 -10 -52 17 -12 45 l31 23 -7 -27 c-8 -32 -10 -31 51
-11 62 21 62 22 33 45 l-25 20 57 -4 c63 -5 75 0 113 52 28 39 60 51 52 20 -9
-33 11 -11 23 26 14 41 23 38 51 -17z m329 -5 c25 -32 23 -76 -3 -81 -16 -3
-17 -1 -7 18 9 17 9 29 1 46 -29 64 -44 -14 -15 -81 20 -48 11 -99 -21 -131
-33 -33 -48 -30 -90 15 -31 33 -44 40 -92 46 -73 9 -83 13 -83 35 0 20 50 37
70 25 6 -4 23 -4 38 0 21 5 23 8 11 17 -11 7 -9 9 9 5 12 -3 20 -1 16 4 -3 5
0 9 7 9 7 0 10 2 8 4 -2 3 -26 0 -52 -6 -53 -11 -81 1 -70 29 5 12 3 14 -8 8
-8 -4 -11 -5 -7 0 4 4 49 7 100 6 92 -2 94 -2 122 28 17 17 33 31 37 31 4 0
17 -12 29 -27z m-487 -30 c4 -3 -2 -12 -13 -20 -14 -10 -25 -11 -37 -4 -15 9
-14 10 10 11 16 0 26 4 22 10 -7 11 8 14 18 3z m572 -174 c0 -15 -7 -25 -17
-27 -13 -3 -18 3 -18 21 0 13 3 27 7 31 13 12 28 -1 28 -25z m-100 -52 c-47
-72 -55 -190 -28 -390 17 -126 14 -155 -13 -164 -6 -2 -42 21 -82 51 -84 64
-155 93 -264 108 -156 22 -312 -24 -399 -119 -24 -27 -48 -48 -53 -48 -5 0
-11 -7 -13 -15 -4 -12 -3 -13 5 -1 7 9 9 -8 6 -55 l-3 -69 9 59 c6 33 14 64
18 68 5 5 4 -13 -1 -39 -13 -65 4 -123 49 -168 19 -20 32 -40 29 -45 -14 -22
-51 -7 -107 45 -69 64 -116 90 -176 98 -37 4 -45 2 -62 -20 -22 -28 -28 -115
-10 -143 6 -9 7 5 3 41 -6 56 14 119 38 119 5 0 3 -10 -5 -22 -10 -13 -15 -41
-15 -68 l2 -45 6 47 c4 26 10 50 13 54 4 3 5 -9 2 -27 -4 -22 2 -56 16 -94 33
-92 35 -104 15 -111 -24 -10 -102 30 -255 130 -246 162 -286 185 -301 175 -36
-23 -89 5 -89 47 0 12 12 36 26 53 14 17 21 31 15 31 -6 0 -11 -4 -11 -10 0
-5 -7 -10 -15 -10 -26 0 -16 19 18 33 17 8 46 25 62 38 67 54 69 56 62 37 -3
-10 -2 -18 3 -18 5 0 -18 -26 -50 -58 -48 -47 -60 -64 -60 -89 0 -36 7 -43 34
-34 27 10 76 1 76 -15 0 -7 9 -18 19 -24 25 -13 84 -13 76 0 -3 6 -1 10 4 10
6 0 11 -4 11 -10 0 -6 25 -9 58 -9 47 1 52 3 27 9 l-30 8 33 1 c18 0 40 8 48
16 12 11 20 12 35 4 65 -34 155 68 106 120 -10 11 -9 13 6 7 10 -3 23 -6 28
-6 6 0 7 -4 4 -10 -4 -6 17 -10 55 -10 47 0 69 5 92 21 29 21 30 25 24 71 l-7
50 61 -7 c33 -4 60 -3 60 2 0 5 6 18 14 28 13 18 15 18 30 2 23 -23 61 -21
112 4 39 18 43 24 46 62 2 27 -2 46 -11 53 -9 7 -11 13 -3 18 6 3 17 0 24 -8
8 -7 37 -17 66 -21 43 -6 58 -3 91 16 47 26 71 70 51 94 -7 9 -10 18 -7 22 4
3 9 -1 13 -10 3 -9 12 -13 20 -10 8 3 20 1 27 -5 16 -14 103 -8 123 9 8 7 22
26 31 43 22 45 64 86 86 86 27 0 77 32 77 49 0 11 3 12 11 4 8 -8 6 -18 -6
-36z m208 -9 c6 -18 -7 -51 -27 -67 -15 -12 -19 -12 -32 1 -14 14 -14 19 0 47
17 31 50 42 59 19z m-171 -72 c8 5 9 1 5 -10 -4 -10 -7 -22 -7 -27 0 -5 -13
-8 -30 -7 -31 2 -38 12 -19 24 6 3 15 1 19 -6 5 -7 10 -8 14 -2 3 5 -1 15 -9
22 -8 7 -15 20 -15 28 0 12 4 11 16 -6 8 -12 20 -19 26 -16z m38 -45 c0 -10
-7 -24 -15 -31 -12 -10 -15 -10 -15 3 0 9 5 19 10 22 6 4 8 11 5 16 -4 5 -1 9
4 9 6 0 11 -8 11 -19z m214 3 c17 -16 16 -20 -17 -67 -14 -21 -26 -27 -45 -25
-39 4 -40 34 -1 74 38 39 42 40 63 18z m-236 -54 c13 0 11 -5 -8 -21 -24 -20
-24 -20 -2 -14 12 4 22 3 22 0 0 -10 -43 -69 -52 -73 -5 -2 -5 -9 -2 -15 4 -7
-2 -3 -13 8 -20 20 -20 20 10 33 17 7 27 15 24 19 -4 3 -14 0 -22 -7 -13 -11
-19 -11 -32 2 -16 16 -9 43 8 33 5 -4 9 1 9 9 0 9 4 16 9 16 5 0 13 10 17 23
7 18 8 19 12 5 2 -10 11 -18 20 -18z m-1024 -225 c56 -24 57 -64 3 -91 -48
-25 -93 -20 -137 15 -43 34 -71 39 -91 15 -17 -21 1 -50 29 -46 14 2 27 -6 38
-23 14 -22 15 -30 4 -49 -17 -33 -54 -48 -85 -36 -14 5 -25 16 -25 25 0 21
-45 19 -97 -5 -24 -10 -43 -21 -43 -25 0 -3 21 -5 46 -5 37 0 45 3 40 15 -3 9
0 15 10 15 19 0 15 -29 -7 -43 -22 -14 -109 1 -116 20 -9 24 86 209 114 222
22 10 23 9 23 -25 0 -19 6 -47 14 -62 18 -35 93 -104 82 -76 -5 14 -4 16 5 7
15 -15 3 -33 -22 -33 -10 0 -19 -4 -19 -10 0 -16 32 -12 52 7 26 24 22 41 -14
56 -45 19 -60 39 -66 92 -9 81 39 119 95 75 30 -23 51 -27 34 -6 -8 10 -9 16
-1 21 5 3 10 2 10 -4 0 -5 9 -13 20 -16 11 -3 20 -12 20 -19 0 -8 17 -26 38
-42 20 -15 31 -20 23 -11 -12 15 -12 17 3 11 30 -12 12 -42 -30 -50 -44 -8
-44 -18 0 -11 39 6 76 31 76 52 0 6 -16 17 -35 24 -19 6 -44 26 -56 43 l-22
31 24 20 24 19 3 -42 c3 -36 7 -43 36 -55z m-867 47 c26 -16 73 -86 73 -108 0
-27 -32 -48 -59 -39 -27 8 -91 89 -91 114 0 31 47 52 77 33z m270 -22 c10 -28
9 -31 -13 -36 -13 -3 -24 -10 -24 -15 0 -6 9 -5 21 1 42 23 42 2 -1 -26 -25
-16 -48 -32 -51 -37 -8 -11 -41 79 -37 100 3 13 12 17 35 16 20 -2 33 3 37 12
9 23 21 18 33 -15z m217 -63 c-22 -42 -19 -40 -43 -27 -17 9 -21 8 -21 -5 0
-24 -20 -17 -21 8 -1 21 -1 21 -8 -3 -13 -41 -52 -114 -72 -133 -21 -19 -49
-13 -30 6 18 18 13 27 -14 27 -16 0 -25 -6 -25 -16 0 -8 5 -12 10 -9 6 3 10
-1 10 -10 0 -20 -19 -15 -34 8 -8 13 -3 24 29 57 21 22 45 40 52 40 7 0 23 14
35 31 15 20 29 29 41 25 23 -6 100 28 89 39 -4 5 -1 5 5 1 10 -6 9 -14 -3 -39z
m856 13 c0 -7 6 -7 19 0 11 5 28 10 38 10 15 0 16 -2 3 -10 -13 -9 -13 -10 1
-10 8 0 20 5 27 12 9 9 12 8 12 -5 0 -9 -12 -23 -27 -31 -16 -8 -22 -15 -14
-16 7 0 11 -6 7 -15 -11 -29 24 -15 44 17 15 24 16 34 7 40 -7 4 4 5 23 1 19
-3 37 -9 40 -13 3 -4 12 -7 21 -7 21 0 109 -42 109 -53 0 -10 -70 -53 -87 -53
-6 0 -9 -6 -6 -13 2 -6 -11 -23 -29 -36 -55 -41 -66 -43 -23 -5 25 22 33 35
23 33 -10 -1 -28 -11 -40 -23 -13 -11 -59 -41 -103 -66 -88 -49 -132 -67 -120
-47 6 9 3 9 -12 1 -11 -6 -22 -9 -24 -6 -3 2 -15 -5 -29 -17 -21 -16 -21 -19
-5 -13 15 5 17 3 8 -6 -6 -6 -33 -13 -60 -15 -35 -2 -40 -1 -18 4 19 5 26 10
18 15 -7 4 -25 5 -40 1 l-28 -7 22 22 c16 15 30 19 51 15 23 -5 32 -1 46 21
19 29 17 39 -7 29 -9 -3 -13 -12 -11 -19 7 -17 -23 -23 -60 -13 -16 4 -39 5
-52 2 -21 -5 -42 11 -30 24 4 3 26 5 50 3 36 -1 47 2 60 21 11 15 16 18 16 7
0 -21 -20 -39 -44 -40 -19 -1 -19 -2 -3 -6 11 -3 29 5 43 18 14 13 35 24 47
24 13 1 29 5 37 10 10 6 12 4 7 -11 -6 -16 -5 -17 5 -4 12 14 21 15 53 11 6
-1 -1 -10 -14 -20 -15 -11 -20 -21 -13 -25 6 -4 19 5 28 19 9 14 21 25 26 25
6 0 4 -8 -3 -17 -12 -14 -10 -14 14 1 37 25 34 38 -8 30 -21 -4 -35 -2 -35 4
0 14 49 44 60 37 5 -3 7 0 4 8 -3 10 4 17 23 22 38 9 34 7 62 33 14 13 38 26
53 29 34 7 47 23 19 23 -10 0 -21 3 -24 8 -2 4 -2 2 -1 -5 2 -7 -1 -15 -6 -18
-6 -4 -10 0 -10 7 0 8 -4 6 -11 -4 -15 -27 -46 -40 -66 -30 -13 7 -23 4 -38
-11 l-20 -20 24 13 c19 10 22 9 19 -2 -3 -7 -17 -13 -31 -13 -15 1 -27 -3 -27
-7 0 -13 -38 -9 -43 5 -2 6 0 21 6 32 10 19 9 19 -10 3 -11 -10 -32 -18 -46
-18 -15 0 -27 -4 -27 -10 0 -5 14 -7 33 -4 24 4 28 3 17 -5 -8 -6 -22 -11 -31
-11 -9 0 -22 -7 -29 -15 -7 -8 -19 -15 -28 -15 -13 0 -13 3 2 19 10 11 19 28
20 38 2 12 11 18 27 18 24 0 75 24 52 25 -6 0 -15 -4 -18 -10 -3 -5 -19 -7
-35 -3 -19 3 -30 1 -30 -6 0 -6 -6 -11 -14 -11 -8 0 -17 -7 -20 -16 -4 -10
-14 -14 -26 -11 -11 3 -18 1 -14 -4 8 -13 38 -11 52 3 9 9 12 9 12 0 0 -16
-33 -32 -65 -32 -16 0 -24 4 -19 11 5 8 1 8 -14 0 -25 -13 -32 -14 -32 -3 0 5
10 14 23 20 12 6 16 11 8 11 -19 1 6 31 26 31 8 0 11 5 8 10 -3 6 1 10 10 10
9 0 32 12 51 26 19 15 38 23 42 19 4 -4 2 -10 -4 -12 -6 -2 -20 -10 -30 -18
-18 -14 -17 -14 6 -7 14 5 30 19 35 31 12 26 46 37 73 22 29 -15 37 -14 22 4
-10 12 -10 15 4 15 9 0 16 -5 16 -10z m764 -61 c-12 -13 -21 -16 -28 -9 -6 6
-2 18 15 36 20 21 25 23 27 9 2 -9 -4 -25 -14 -36z m-1689 -92 c-9 -24 -15
-50 -13 -58 2 -9 -5 -14 -22 -14 -16 0 -26 6 -28 18 -4 20 32 100 57 124 15
16 16 15 19 -5 2 -13 -4 -42 -13 -65z m1687 68 l23 6 -24 -21 c-22 -19 -24
-19 -37 -3 -18 24 -18 38 1 23 8 -6 24 -9 37 -5z m-48 -37 c-6 -21 -20 -41
-51 -75 -21 -23 -25 -14 -6 15 10 15 25 39 33 55 16 33 34 36 24 5z m-824 -42
c0 -19 -24 -37 -54 -40 -14 -1 -34 -10 -44 -19 -10 -10 -27 -17 -38 -16 -17 0
-17 2 4 11 38 19 24 26 -19 11 -23 -7 -43 -12 -46 -10 -2 3 -1 17 3 31 3 15 9
25 12 22 3 -3 12 -1 19 6 10 8 17 8 21 1 4 -5 28 -13 55 -16 40 -6 49 -4 59
13 15 23 28 26 28 6z m35 4 c3 -5 14 -10 23 -9 14 0 13 2 -3 9 -18 8 -17 9 8
9 24 1 26 -1 18 -18 -6 -10 -28 -23 -49 -28 l-39 -10 11 28 c11 30 21 36 31
19z m1097 -7 c24 -22 23 -39 -7 -68 -28 -29 -57 -32 -79 -9 -22 22 -20 41 9
69 28 29 51 32 77 8z m-2226 -10 c19 -26 17 -43 -6 -43 -18 0 -40 26 -40 49 0
17 32 13 46 -6z m-294 -20 c21 -19 23 -33 5 -33 -18 0 -49 34 -40 43 9 10 14
9 35 -10z m516 -85 c-5 -10 34 -48 49 -48 8 0 12 -4 8 -10 -3 -5 -13 -7 -23
-4 -12 4 -11 0 6 -14 13 -12 20 -27 16 -36 -4 -10 5 -22 25 -34 17 -10 28 -22
24 -25 -3 -4 13 -7 36 -7 26 0 40 4 36 10 -9 15 8 12 33 -6 13 -9 31 -13 42
-9 11 4 20 2 20 -3 0 -16 -30 -23 -51 -12 -13 8 -25 7 -39 0 -52 -28 -148 42
-172 125 -6 22 -15 44 -20 50 -12 13 -10 37 3 33 6 -2 9 -6 7 -10z m482 -17
c0 -5 15 -8 33 -7 24 1 32 -3 31 -16 -1 -10 4 -14 11 -11 13 4 35 -25 35 -46
0 -5 -12 -14 -27 -19 -16 -6 -21 -11 -13 -11 9 -1 25 6 37 14 18 13 22 12 37
-4 15 -17 15 -19 1 -25 -9 -3 -13 -2 -10 4 9 14 -13 12 -60 -5 -45 -16 -109
-20 -86 -6 7 5 11 13 7 19 -3 5 3 12 14 15 31 8 23 24 -9 19 -35 -5 -47 20
-32 62 10 25 31 36 31 17z m-598 -28 c24 -22 24 -53 -2 -53 -22 0 -44 34 -36
56 7 18 15 18 38 -3z m228 -53 c0 -5 6 -7 14 -4 8 3 17 1 21 -5 7 -12 -23 -15
-49 -5 -20 8 -21 24 -1 24 8 0 15 -4 15 -10z m-600 -20 c22 -22 50 -84 50
-111 0 -28 -42 -52 -72 -40 -31 12 -45 29 -62 79 -14 38 -13 43 5 66 24 31 52
33 79 6z m440 -32 c0 -12 -42 5 -47 19 -10 26 20 35 34 10 7 -12 12 -25 13
-29z m2050 17 c28 -34 -32 -93 -65 -65 -18 15 -19 34 -5 61 13 23 52 25 70 4z
m-2322 -58 c42 -38 15 -69 -37 -42 -37 18 -47 46 -25 62 18 13 27 11 62 -20z
m488 -30 c1 -1 4 -24 7 -51 5 -47 4 -48 -14 -30 -10 11 -25 36 -34 58 l-16 38
28 -7 c15 -3 28 -7 29 -8z m1003 -166 c9 -6 -9 -7 -50 -4 -35 3 -66 7 -68 9
-10 9 105 3 118 -5z m-172 -134 c2 -42 -2 -70 -11 -83 -14 -18 -15 -18 -21 -1
-4 9 -4 47 0 82 9 86 29 87 32 2z m-1174 22 c-36 -24 -42 -24 -36 1 4 15 11
19 25 14 14 -4 18 -2 14 5 -5 7 -1 9 9 5 13 -6 11 -10 -12 -25z m1850 0 c3
-10 3 -19 1 -19 -2 0 -20 9 -40 19 l-35 19 35 0 c25 0 35 -5 39 -19z m-943 -3
c0 -2 -7 -23 -15 -46 -8 -23 -15 -55 -15 -70 0 -36 -19 -90 -32 -90 -6 0 -7 9
-3 23 5 12 9 54 11 92 1 39 3 75 4 80 0 6 7 1 15 -9 15 -19 15 -19 15 2 0 12
5 22 10 22 6 0 10 -2 10 -4z m-850 -71 c0 -6 11 -31 25 -57 30 -56 31 -67 7
-45 -24 22 -60 96 -68 138 l-6 34 21 -30 c11 -16 21 -35 21 -40z m454 -85 c2
-49 -16 -34 -45 38 -16 40 -29 78 -29 84 0 21 72 -98 74 -122z"/>
<path d="M1450 2810 c-7 -12 -13 -13 -27 -4 -26 15 -93 6 -86 -12 3 -8 -1 -14
-11 -14 -9 0 -16 5 -16 11 0 14 -42 0 -57 -20 -9 -12 -15 -13 -20 -4 -10 15
-100 -22 -125 -52 -15 -17 -19 -18 -28 -5 -8 13 -11 11 -16 -8 -4 -13 -14 -22
-23 -21 -30 3 -41 -1 -41 -15 0 -18 -27 -28 -34 -13 -3 7 -8 3 -11 -10 -7 -23
-31 -37 -46 -28 -16 11 -217 -197 -239 -247 -11 -27 -25 -48 -29 -48 -5 0 -12
-12 -16 -27 -3 -15 -15 -39 -26 -54 -24 -33 -24 -40 -1 -32 15 6 15 5 4 -10
-8 -9 -11 -21 -7 -27 3 -5 2 -10 -4 -10 -5 0 -8 -18 -6 -40 3 -28 0 -42 -9
-46 -12 -4 -12 -10 0 -33 7 -15 15 -38 17 -52 3 -14 11 -25 23 -26 10 -2 14 0
7 3 -7 3 -9 12 -6 20 3 8 -1 14 -8 14 -9 1 -7 6 6 17 16 13 17 15 3 10 -10 -4
-18 -2 -18 3 0 6 3 10 8 10 4 0 5 21 3 46 -2 28 1 44 6 41 6 -4 8 4 5 19 -3
17 3 34 20 52 43 48 53 64 38 60 -7 -2 -13 7 -15 19 -1 12 2 20 7 17 4 -3 8 4
8 15 0 21 22 23 42 3 7 -7 18 -12 25 -12 13 0 38 38 30 47 -3 2 -10 -5 -17
-16 -6 -12 -15 -21 -20 -21 -18 0 -11 29 10 43 l21 14 -21 6 c-11 3 -20 10
-20 16 0 10 4 12 25 11 13 -1 66 32 61 37 -3 3 -17 -2 -30 -11 -14 -9 -27 -12
-31 -6 -3 5 7 17 22 27 15 10 45 37 66 59 28 29 45 40 59 36 21 -5 71 35 62
50 -8 13 16 38 36 38 10 0 32 11 48 25 30 25 80 35 66 14 -5 -8 -1 -8 14 0 11
6 26 11 32 11 17 0 1 -20 -23 -29 l-21 -8 22 -5 c16 -5 24 1 35 25 14 28 90
97 108 97 13 0 3 -32 -14 -42 -9 -5 -16 -19 -16 -31 1 -16 3 -17 6 -5 5 18 40
34 51 23 4 -3 -4 -15 -18 -25 -27 -21 -21 -26 11 -10 10 6 19 17 19 25 0 8 9
19 20 25 11 6 20 18 19 28 0 14 -3 13 -16 -5 -17 -25 -43 -31 -43 -10 0 8 19
22 43 31 37 16 40 19 22 27 -15 6 -11 7 15 4 79 -11 93 -15 110 -30 24 -22 36
-19 60 15 12 17 26 30 31 30 12 0 12 -33 -1 -46 -14 -14 -3 -41 18 -49 12 -4
27 5 48 29 31 35 47 42 77 30 13 -5 12 -9 -4 -25 -22 -22 -21 -37 4 -53 33
-21 67 20 44 52 -7 8 -5 12 7 12 9 0 16 -4 16 -10 0 -5 3 -9 8 -9 20 3 32 -2
27 -12 -4 -5 -2 -23 5 -39 9 -22 20 -30 51 -35 57 -10 64 1 29 44 -35 45 -163
113 -206 109 -16 -1 -38 3 -50 10 -32 17 -194 11 -204 -8z m310 -84 c0 -19
-14 -28 -34 -20 -13 5 -14 9 -5 20 15 18 39 18 39 0z m124 -22 c4 -9 4 -19 2
-22 -10 -9 -36 8 -36 23 0 20 26 19 34 -1z m-944 -111 c0 -10 -32 -43 -42 -43
-14 0 -9 22 10 36 19 15 32 18 32 7z m-287 -339 c3 -4 2 -16 -4 -26 -13 -24
-35 -9 -26 16 7 17 19 21 30 10z"/>
<path d="M1400 2715 c-7 -9 -9 -19 -5 -23 4 -4 10 -1 12 6 3 6 14 12 26 12 18
0 19 2 7 10 -20 13 -25 12 -40 -5z"/>
<path d="M1425 2679 c4 -18 0 -21 -25 -17 -16 2 -27 1 -24 -4 8 -13 51 -9 64
7 12 14 6 35 -10 35 -5 0 -7 -9 -5 -21z"/>
<path d="M1581 2656 c-16 -19 -7 -46 14 -46 22 0 30 29 13 46 -13 13 -16 13
-27 0z"/>
<path d="M1032 2618 c-18 -18 -24 -20 -31 -9 -6 9 -11 10 -15 2 -4 -6 -4 -11
1 -12 52 -7 85 -7 75 0 -7 4 -10 15 -6 24 8 23 3 21 -24 -5z"/>
<path d="M1231 2601 c-19 -12 -6 -43 16 -39 10 2 18 12 18 22 0 22 -14 29 -34
17z"/>
<path d="M1078 2576 c-15 -18 -19 -19 -28 -6 -7 11 -10 11 -10 2 0 -20 30 -26
47 -9 8 8 14 19 12 25 -2 5 -12 0 -21 -12z"/>
<path d="M950 2535 c-16 -19 -5 -34 12 -17 7 7 18 12 25 12 19 0 3 -30 -21
-40 -15 -6 -16 -9 -5 -9 9 -1 24 8 35 20 18 20 18 21 -1 35 -24 18 -30 18 -45
-1z"/>
<path d="M1115 2520 c3 -6 -4 -14 -17 -19 -22 -8 -21 -9 10 -16 20 -4 38 -3
44 3 16 16 2 42 -22 42 -12 0 -18 -5 -15 -10z"/>
<path d="M870 2492 c0 -6 10 -8 21 -5 16 4 20 2 17 -8 -3 -8 -13 -13 -22 -13
-9 1 -16 -3 -16 -8 0 -5 10 -8 23 -6 14 2 22 10 22 23 0 13 -8 21 -22 23 -13
2 -23 -1 -23 -6z"/>
<path d="M1167 2473 c-14 -13 -6 -25 8 -13 20 17 32 5 15 -15 -7 -9 -20 -13
-29 -10 -13 5 -14 4 -3 -7 17 -17 46 1 50 31 3 15 -2 21 -16 21 -10 0 -22 -3
-25 -7z"/>
<path d="M1015 2410 c-3 -6 1 -7 9 -4 10 4 16 1 16 -9 0 -22 -20 -32 -31 -16
-7 11 -9 11 -9 1 0 -7 7 -15 16 -19 20 -7 45 22 37 43 -6 16 -29 19 -38 4z"/>
<path d="M1470 2370 c-30 -16 -50 -29 -45 -29 6 0 35 13 65 29 30 16 51 29 45
29 -5 0 -35 -13 -65 -29z"/>
<path d="M960 2253 c0 -27 -17 -39 -23 -18 -4 12 -5 12 -3 -1 2 -26 23 -28 36
-4 9 16 9 25 1 33 -8 8 -11 5 -11 -10z"/>
<path d="M688 2148 c10 -12 11 -22 3 -35 -8 -15 -10 -15 -15 -3 -14 43 -14 44
-15 24 -1 -30 27 -53 40 -33 13 21 11 35 -8 50 -16 13 -17 12 -5 -3z"/>
<path d="M2408 2538 c29 -15 33 -73 7 -114 -13 -20 -45 -29 -45 -12 0 5 -4 6
-10 3 -21 -13 -9 -32 19 -33 33 -1 53 18 70 67 22 67 6 102 -46 100 -15 0 -14
-2 5 -11z"/>
<path d="M1855 2451 c-13 -43 -129 -119 -230 -151 -54 -17 -67 -29 -59 -54 11
-33 46 -51 38 -18 -8 27 15 47 96 83 41 18 90 48 107 66 18 18 38 33 44 33 5
0 7 5 4 10 -10 16 7 12 27 -7 18 -16 23 -8 12 21 -3 9 -10 13 -15 10 -5 -3 -6
2 -3 10 3 9 1 16 -4 16 -6 0 -13 -9 -17 -19z"/>
<path d="M1435 2250 c-30 -8 -30 -8 8 -9 20 0 37 -6 37 -12 0 -11 29 -44 31
-35 13 61 -5 74 -76 56z"/>
<path d="M1995 2236 c-31 -32 -34 -85 -5 -111 17 -16 20 -16 20 -2 0 9 -5 19
-11 22 -7 5 -3 15 10 29 12 12 18 26 14 30 -5 4 3 6 17 4 21 -2 25 1 25 22 0
36 -37 39 -70 6z"/>
<path d="M1630 2131 c-16 -30 -12 -48 12 -65 18 -13 68 -23 68 -13 0 1 -7 22
-14 47 -9 28 -15 36 -15 23 -1 -13 -5 -23 -10 -23 -15 0 -23 18 -11 25 11 7 4
25 -10 25 -5 0 -14 -9 -20 -19z"/>
<path d="M1110 2073 c-84 -82 -267 -179 -361 -190 -45 -5 -49 -8 -35 -21 12
-12 18 -13 30 -3 8 7 25 14 38 16 48 7 131 37 171 63 83 53 196 147 187 155
-3 3 -16 -7 -30 -20z"/>
<path d="M1250 1895 c-19 -23 -3 -35 45 -33 34 2 42 5 33 15 -6 7 -7 13 -2 13
5 0 2 5 -6 10 -22 14 -56 12 -70 -5z"/>
<path d="M2134 2393 c5 -9 1 -13 -12 -13 -27 0 -35 -39 -21 -95 12 -46 40 -68
62 -46 8 8 5 11 -10 11 -25 0 -39 15 -23 25 6 4 8 11 5 16 -4 5 3 9 14 9 12 0
21 7 21 16 0 8 5 12 11 8 16 -10 -17 51 -37 67 -11 9 -15 9 -10 2z m18 -65
c-6 -6 -19 -8 -29 -4 -17 7 -17 8 0 17 9 6 17 18 18 27 0 13 3 11 11 -6 8 -16
8 -26 0 -34z"/>
<path d="M1987 1930 c-10 -38 46 -67 71 -37 14 17 9 50 -9 55 -11 3 -11 1 1
-7 12 -9 9 -11 -13 -11 -16 0 -26 4 -22 10 3 6 0 10 -8 10 -8 0 -17 -9 -20
-20z"/>
<path d="M1713 1833 c26 -2 67 -2 90 0 23 2 2 3 -48 3 -49 0 -68 -1 -42 -3z"/>
<path d="M2056 1784 c32 -19 68 -44 80 -55 25 -23 34 -24 34 -2 0 9 -3 14 -6
10 -3 -3 -38 14 -77 39 -39 24 -76 44 -81 44 -5 0 17 -16 50 -36z"/>
<path d="M317 1826 c-8 -20 51 -96 74 -96 10 0 19 6 19 14 0 9 -7 12 -18 9
-23 -6 -74 51 -66 72 4 8 4 15 1 15 -3 0 -7 -6 -10 -14z"/>
<path d="M1730 1750 c-8 -6 -32 -7 -54 -4 -26 4 -36 3 -32 -4 4 -6 13 -9 21
-5 8 3 15 0 15 -6 0 -6 8 -8 18 -4 15 6 15 5 3 -10 -20 -25 0 -20 32 8 36 32
34 50 -3 25z"/>
<path d="M1730 1711 c0 -6 -12 -17 -27 -25 -18 -10 -22 -15 -12 -16 25 0 65
35 51 44 -7 4 -12 3 -12 -3z"/>
<path d="M1827 1643 c-12 -11 -8 -33 6 -33 7 0 22 7 33 15 18 14 17 14 -10 5
-26 -9 -27 -9 -16 5 12 14 0 22 -13 8z"/>
<path d="M200 1270 c6 -12 17 -16 35 -13 37 8 30 28 -9 29 -30 0 -33 -2 -26
-16z"/>
<path d="M2286 2731 c-44 -46 -30 -101 24 -101 51 0 93 80 58 107 -29 23 -56
21 -82 -6z m78 -17 c8 -21 -15 -54 -41 -60 -47 -12 -57 22 -19 61 26 25 50 25
60 -1z"/>
<path d="M583 2628 c-46 -22 -11 -108 44 -108 52 0 66 73 20 105 -25 17 -34
18 -64 3z m64 -34 c16 -25 16 -27 -1 -40 -32 -23 -77 14 -62 51 9 24 44 17 63
-11z"/>
<path d="M2597 2590 c-71 -56 -22 -163 56 -123 46 23 63 96 29 126 -25 23 -54
21 -85 -3z m81 -35 c3 -34 -30 -78 -55 -73 -31 6 -38 34 -20 73 14 30 22 36
45 33 22 -2 28 -9 30 -33z"/>
<path d="M347 2472 c-22 -24 -21 -45 1 -65 26 -24 49 -21 68 8 15 23 15 27 0
50 -19 30 -46 32 -69 7z m54 -18 c11 -14 10 -18 -6 -30 -16 -12 -21 -12 -33 0
-17 17 -9 46 11 46 8 0 21 -7 28 -16z"/>
<path d="M2570 2400 c-43 -43 -45 -84 -9 -123 31 -34 104 3 115 58 13 72 -57
114 -106 65z m78 -12 c18 -18 14 -49 -10 -75 -25 -27 -41 -29 -62 -7 -20 20
-20 22 4 62 20 33 47 41 68 20z"/>
<path d="M188 2354 c-16 -8 -28 -20 -28 -27 0 -21 30 -57 49 -57 40 0 56 54
24 83 -16 14 -21 14 -45 1z m42 -34 c0 -27 -19 -35 -38 -17 -12 13 -13 19 -3
31 16 19 41 10 41 -14z"/>
<path d="M370 2285 c-14 -17 -8 -79 11 -101 15 -18 63 -18 78 0 15 18 5 81
-16 101 -19 19 -57 19 -73 0z m69 -43 c12 -40 7 -52 -18 -52 -26 0 -41 20 -41
56 0 56 44 53 59 -4z"/>
<path d="M2534 2219 c-18 -19 -23 -28 -11 -24 12 5 17 2 17 -9 0 -9 -8 -16
-17 -17 -11 0 -13 -3 -5 -6 7 -3 26 0 42 6 l30 10 -5 -43 c-5 -36 -2 -48 17
-70 46 -54 119 -30 152 49 21 54 16 88 -19 111 -28 19 -85 13 -109 -11 -18
-19 -26 -19 -26 -1 0 8 -4 18 -10 21 -5 3 -7 0 -5 -7 7 -17 -20 -56 -31 -46
-4 5 -2 20 5 34 17 38 9 39 -25 3z m198 -16 c23 -21 23 -35 -2 -83 -25 -49
-54 -66 -85 -52 -32 15 -39 45 -19 84 35 69 68 85 106 51z"/>
<path d="M2715 2177 c6 -21 1 -33 -23 -57 -32 -32 -28 -42 5 -12 32 28 45 68
27 83 -13 11 -14 9 -9 -14z"/>
<path d="M121 2134 c-12 -15 -21 -37 -21 -49 0 -124 100 -190 171 -113 17 17
28 37 25 44 -14 36 -18 84 -7 84 7 0 9 -4 6 -10 -3 -5 1 -10 9 -10 8 0 20 -8
25 -17 6 -10 11 -12 11 -5 0 17 20 15 20 -3 0 -8 9 -19 20 -25 17 -9 18 -14 7
-30 -21 -35 27 -85 61 -64 36 23 18 83 -25 84 -18 0 -53 32 -53 47 0 19 17 16
30 -4 10 -16 10 -16 7 2 -2 15 -10 20 -30 18 -21 -1 -28 4 -33 22 -7 30 -35
41 -50 20 -17 -22 -16 -22 -46 8 -38 38 -98 38 -127 1z m99 -4 c10 -5 26 -30
36 -55 17 -45 17 -47 -3 -73 -38 -52 -105 -38 -123 26 -14 53 -13 69 10 92 22
22 51 26 80 10z m110 -21 c10 -18 9 -20 -7 -17 -10 2 -19 11 -21 21 -5 24 15
21 28 -4z m118 -136 c3 -17 -2 -23 -16 -23 -24 0 -46 25 -37 40 12 19 50 7 53
-17z"/>
<path d="M144 2037 c3 -10 6 -22 6 -27 0 -10 35 -19 47 -11 5 3 13 15 16 26 7
18 5 18 -10 -2 -19 -24 -32 -21 -52 12 -10 17 -12 17 -7 2z"/>
<path d="M2552 1954 c-36 -25 -24 -84 18 -84 20 0 50 31 50 52 0 13 -30 48
-41 48 -3 0 -15 -7 -27 -16z m44 -19 c7 -18 -12 -45 -32 -45 -17 0 -18 32 -2
48 16 16 27 15 34 -3z"/>
<path d="M2788 1953 c-3 -13 -17 -27 -30 -32 -22 -9 -22 -10 -2 -10 26 -1 47
22 42 46 -3 15 -5 14 -10 -4z"/>
<path d="M2687 1947 c-3 -10 -15 -13 -31 -10 -22 5 -26 2 -26 -18 0 -22 0 -22
14 -3 8 10 18 16 22 12 4 -4 1 -14 -6 -23 -7 -8 -10 -15 -7 -15 9 0 50 61 44
66 -2 3 -7 -2 -10 -9z"/>
<path d="M2335 1860 c-3 -11 -3 -25 1 -31 4 -8 3 -9 -4 -5 -18 11 -14 -10 3
-24 10 -8 12 -16 6 -19 -6 -4 -6 -12 -2 -20 7 -11 13 -11 27 -1 16 10 16 11 2
6 -23 -7 -23 10 -2 22 14 8 15 14 5 45 -15 45 -27 54 -36 27z"/>
<path d="M72 1858 c-18 -18 -14 -73 6 -91 28 -26 67 -22 80 8 17 37 15 51 -10
75 -24 22 -58 26 -76 8z m52 -20 c19 -26 21 -68 4 -68 -20 0 -48 32 -48 55 0
40 21 46 44 13z"/>
<path d="M2663 1766 c-22 -19 -40 -42 -40 -51 0 -11 8 -7 24 14 13 16 36 39
51 50 15 11 22 21 16 21 -6 0 -28 -15 -51 -34z"/>
<path d="M63 1747 c4 -11 1 -17 -7 -17 -8 0 -17 6 -19 13 -4 9 -6 9 -6 0 -1
-14 17 -27 40 -28 18 -2 15 30 -4 42 -6 4 -8 0 -4 -10z"/>
<path d="M2833 1538 c-22 -29 -24 -38 -7 -31 14 5 16 3 10 -12 -7 -18 -6 -18
14 0 11 10 19 25 19 34 -1 13 -2 13 -6 -1 -2 -10 -9 -18 -15 -18 -6 0 -8 9 -5
20 6 23 3 25 -10 8z"/>
<path d="M287 1503 c-15 -14 -6 -32 29 -58 26 -20 33 -22 25 -9 -5 11 -12 31
-16 47 -5 25 -23 35 -38 20z"/>
<path d="M2347 1457 c-68 -53 -121 -105 -150 -147 -17 -25 -44 -57 -59 -72
-29 -27 -32 -44 -18 -88 8 -24 8 -23 9 8 1 38 21 35 21 -3 0 -22 4 -21 50 24
42 41 50 54 45 74 -8 32 6 60 59 116 37 40 38 42 11 26 -22 -12 -16 -4 19 29
52 48 61 69 13 33z m-119 -179 c-7 -45 -17 -70 -34 -88 -23 -23 -24 -24 -24
-4 0 47 45 154 65 154 1 0 -2 -28 -7 -62z"/>
<path d="M522 1333 c57 -60 61 -70 93 -202 9 -36 28 -85 43 -110 15 -25 43
-80 61 -121 18 -41 50 -93 70 -115 20 -22 47 -57 60 -77 12 -21 24 -38 26 -38
2 0 -3 24 -11 53 -17 67 -55 148 -66 141 -4 -3 -8 2 -8 11 0 9 -7 23 -15 31
-20 21 -19 11 5 -36 22 -42 25 -60 12 -60 -5 0 -17 19 -28 43 -10 23 -21 44
-24 47 -14 14 -70 142 -56 131 8 -7 26 -36 41 -64 24 -49 25 -50 25 -20 0 18
-4 35 -10 38 -5 3 -10 15 -10 26 0 13 -4 18 -12 13 -7 -4 -8 -3 -4 5 10 16 23
5 46 -40 11 -21 22 -39 25 -39 7 0 -12 47 -31 75 -9 14 -12 25 -7 25 13 0 53
-44 53 -58 0 -6 5 -14 12 -18 6 -4 9 -3 7 2 -3 5 -11 21 -19 36 -7 16 -10 31
-7 34 10 11 46 -37 57 -76 5 -19 21 -52 35 -73 15 -21 25 -43 22 -50 -2 -7
-12 4 -22 23 -14 25 -20 30 -23 18 -4 -19 20 -69 42 -87 36 -30 50 29 16 72
-11 14 -29 47 -41 73 -11 27 -27 64 -36 82 -9 18 -13 35 -10 38 3 3 16 -17 28
-45 12 -29 23 -50 25 -48 3 3 -34 108 -41 115 -2 2 -32 -4 -68 -13 -36 -9 -80
-15 -98 -13 -27 3 -34 9 -46 42 -13 39 -13 39 7 21 16 -14 14 -5 -11 42 -43
84 -32 99 15 20 37 -64 61 -86 77 -70 13 13 -22 74 -47 84 -13 4 -39 33 -59
62 -31 47 -81 92 -135 122 -8 5 10 -19 42 -52z"/>
<path d="M1835 1242 c-44 -24 -50 -31 -52 -62 -1 -19 1 -28 4 -20 6 15 41 44
56 46 4 1 8 2 10 3 13 11 48 7 58 -6 12 -14 12 -16 -1 -8 -13 8 -13 7 0 -10
14 -17 15 -17 18 13 4 35 -12 72 -31 72 -7 0 -34 -13 -62 -28z"/>
<path d="M2551 1249 c-13 -13 -20 -27 -16 -39 4 -12 -1 -19 -15 -23 -25 -6
-26 -34 -2 -41 21 -7 26 -36 7 -36 -7 0 -25 -19 -40 -42 l-28 -43 34 32 c19
17 55 41 82 52 26 11 64 32 84 46 22 14 52 25 71 25 29 0 33 -3 30 -22 -2 -16
-15 -27 -44 -38 -22 -8 -52 -23 -67 -32 -14 -10 -44 -22 -67 -27 -23 -5 -53
-20 -66 -32 -27 -25 -130 -227 -139 -272 -3 -15 -21 -44 -41 -65 -35 -37 -38
-46 -48 -112 -2 -19 -8 -44 -12 -55 -5 -14 -4 -17 4 -10 13 12 52 126 40 119
-4 -3 -8 -1 -8 5 0 6 16 23 35 38 23 19 37 40 42 63 11 60 59 163 78 166 13 2
16 -3 11 -19 -5 -20 -4 -21 8 -4 18 24 26 21 26 -9 0 -16 -21 -52 -60 -99 -57
-70 -59 -74 -30 -64 16 6 33 15 36 20 3 5 -3 6 -13 2 -11 -4 -5 7 15 28 19 19
40 46 48 62 8 15 16 27 18 27 2 0 2 -21 0 -47 -1 -27 -1 -37 2 -23 12 58 26
92 36 82 6 -6 6 -17 -1 -30 -15 -29 -13 -41 3 -19 8 11 17 14 20 8 8 -13 -25
-82 -36 -75 -4 3 -8 0 -8 -7 0 -7 -12 -28 -27 -48 l-26 -36 32 30 c18 17 41
45 53 63 23 37 43 43 32 10 -12 -39 -163 -218 -184 -218 -4 0 -17 -9 -30 -20
-13 -11 -29 -20 -36 -20 -37 0 -9 -65 40 -92 13 -7 38 -21 55 -31 17 -10 31
-15 31 -13 0 3 -12 12 -27 20 -39 21 -4 21 40 0 31 -15 36 -15 65 0 18 9 32
22 32 29 0 15 -20 37 -34 37 -5 0 -2 -6 8 -13 18 -13 18 -14 0 -22 -38 -16
-59 -15 -121 6 -35 11 -63 22 -63 24 0 2 34 3 76 3 42 1 78 3 81 6 3 3 -28 5
-69 4 -74 0 -118 7 -118 20 1 4 21 20 46 36 36 23 51 27 77 21 27 -6 162 -8
295 -4 36 1 50 15 32 32 -10 9 -11 9 -6 0 5 -9 0 -13 -13 -13 -12 0 -21 6 -21
13 0 9 -2 9 -8 -1 -14 -21 -75 -26 -110 -8 -27 14 -31 14 -26 1 5 -12 -3 -15
-47 -14 -78 2 -110 11 -100 28 14 21 87 30 157 18 68 -12 80 -8 70 20 -5 13
-9 14 -15 5 -5 -9 -24 -12 -51 -10 -36 2 -44 7 -46 26 -3 17 1 22 19 22 17 0
19 -2 8 -9 -22 -14 67 0 107 16 44 18 32 33 -26 32 -27 -1 -36 -4 -22 -6 56
-10 44 -24 -19 -22 -60 2 -65 1 -97 -31 -19 -18 -36 -31 -39 -28 -8 8 38 64
66 81 26 14 27 14 22 -1 -5 -13 -3 -14 6 -6 16 15 31 124 17 121 -5 -1 -12 6
-14 16 -6 27 36 67 70 67 35 0 36 13 2 39 l-27 21 32 -6 c20 -4 31 -3 31 5 0
6 -12 11 -26 11 -14 0 -32 7 -41 15 -8 9 -18 13 -21 10 -4 -3 0 -10 8 -15 11
-7 4 -10 -25 -11 l-40 -1 35 -7 c44 -9 82 -29 75 -40 -13 -22 -64 -17 -102 11
-21 15 -48 32 -60 37 -29 13 -37 29 -23 46 14 17 55 21 45 5 -3 -5 3 -10 15
-10 19 0 20 2 6 15 -8 8 -20 15 -27 15 -31 0 5 13 41 15 29 1 52 11 81 34 22
18 43 31 45 28 11 -10 -17 -47 -46 -62 -38 -20 -38 -27 0 -22 34 6 51 20 73
63 9 17 23 36 31 43 27 23 19 59 -16 81 -18 11 -40 20 -48 19 -10 0 -8 -3 5
-9 22 -10 26 -8 -35 -15 -24 -2 -50 -16 -46 -24 3 -4 -5 -8 -17 -8 -11 -1 -25
-9 -29 -18 -10 -17 -28 -20 -28 -4 0 5 5 7 10 4 7 -4 9 2 4 19 -5 22 -3 26 15
26 14 0 23 8 27 25 13 53 -15 71 -55 34z m49 -1 c0 -14 -30 -48 -42 -48 -13 0
-9 22 9 42 18 21 33 23 33 6z m-69 -324 c7 -8 9 -17 6 -20 -6 -7 -67 27 -67
37 0 11 49 -3 61 -17z m49 -34 c6 9 10 6 15 -9 3 -11 11 -21 16 -21 6 0 7 -5
4 -11 -5 -7 -14 -3 -26 10 -11 12 -24 21 -29 21 -6 0 -10 8 -10 18 1 15 2 15
11 -2 9 -14 13 -15 19 -6z"/>
<path d="M1685 1180 c-18 -8 -18 -9 6 -9 14 -1 31 -7 38 -13 11 -11 13 -10 7
5 -3 10 -6 21 -6 23 0 6 -23 3 -45 -6z"/>
<path d="M781 1148 c-1 -19 45 -55 56 -44 3 3 12 1 19 -5 24 -20 27 12 3 35
-22 20 -22 20 -6 0 25 -31 21 -38 -9 -15 -15 12 -32 21 -40 21 -7 0 -15 6 -17
13 -3 7 -6 5 -6 -5z"/>
<path d="M1970 1124 c0 -11 8 -14 33 -12 17 2 31 -1 30 -7 -1 -5 15 -11 35
-13 38 -2 49 -8 39 -19 -6 -6 -57 4 -123 23 -18 5 -22 0 -28 -28 -3 -19 -22
-58 -41 -88 -26 -40 -35 -65 -35 -95 l1 -40 13 36 c13 38 79 152 104 181 8 10
20 14 26 10 6 -3 15 -7 20 -7 18 0 16 -21 -2 -41 -30 -32 -39 -55 -40 -104 -2
-59 -11 -100 -23 -100 -12 0 -11 68 2 130 13 63 8 71 -14 24 -10 -21 -12 -32
-5 -28 8 5 9 2 4 -12 -16 -39 -29 -121 -23 -137 3 -9 13 -17 21 -17 24 0 45
41 57 109 9 48 21 75 54 119 24 32 46 69 50 83 6 24 4 25 -27 21 -23 -2 -39 2
-47 12 -18 21 -81 22 -81 0z"/>
<path d="M1380 1090 c-12 -8 -13 -10 -1 -10 8 0 24 -8 35 -17 20 -17 20 -17 7
0 -9 11 -10 17 -2 17 6 0 11 5 11 10 0 13 -30 13 -50 0z"/>
<path d="M321 1021 c-10 -7 -1 -15 33 -30 52 -23 52 -35 2 -57 -18 -8 -24 -13
-13 -14 20 0 23 -28 3 -36 -8 -3 -12 -17 -9 -38 2 -23 -1 -36 -12 -40 -9 -3
-15 -18 -15 -41 0 -19 -5 -35 -11 -35 -8 0 -8 -4 0 -13 16 -21 -28 -41 -70
-32 -25 4 -30 3 -19 -4 12 -9 10 -11 -12 -11 -15 0 -39 -5 -53 -12 -20 -9 -28
-9 -38 1 -9 9 -9 14 2 20 8 6 9 11 3 15 -16 10 -22 -24 -14 -79 l8 -50 87 1
c48 0 97 6 110 12 12 5 31 13 42 17 43 15 -7 16 -68 1 -99 -25 -191 -6 -154
31 7 7 53 23 102 35 50 12 93 25 96 30 3 5 28 -11 55 -35 27 -25 45 -49 41
-54 -5 -4 -27 12 -48 36 -22 24 -42 41 -45 38 -3 -3 6 -18 20 -34 14 -15 26
-31 26 -35 0 -3 16 -12 35 -18 45 -15 65 -47 32 -53 -16 -3 -13 -5 10 -6 18 0
54 -9 80 -20 26 -10 54 -16 62 -13 9 3 11 0 6 -7 -4 -7 -19 -11 -33 -10 -15 1
-34 -1 -42 -5 -8 -3 -40 -7 -70 -9 -54 -2 -55 -2 -53 26 1 18 -3 27 -13 27 -8
0 -14 -4 -14 -10 0 -12 -76 -12 -105 0 -18 7 -18 8 8 15 15 4 41 5 57 1 37 -7
39 1 5 14 -35 13 -95 -11 -95 -39 0 -23 48 -37 100 -29 21 3 30 0 30 -9 0 -25
45 -32 113 -18 36 7 76 12 89 9 21 -4 21 -3 3 5 -16 7 -12 10 27 16 35 5 61 2
100 -11 66 -23 63 -21 48 -39 -15 -19 -116 -21 -122 -3 -3 7 -7 5 -11 -5 -10
-27 36 -41 92 -26 25 6 56 12 69 12 24 2 31 17 7 17 -8 0 -15 4 -15 8 0 12
110 -6 127 -20 8 -6 16 -9 19 -6 9 9 -63 38 -94 38 -17 0 -50 8 -74 18 -24 10
-72 26 -108 36 -108 28 -169 49 -164 57 9 16 -24 75 -70 124 l-47 50 50 -64
c28 -36 51 -69 51 -75 0 -16 -115 117 -116 133 0 9 -4 27 -8 40 -14 41 10 47
29 7 10 -20 50 -69 91 -109 112 -111 144 -138 144 -120 0 17 -181 199 -194
195 -5 -2 -6 4 -2 13 3 9 2 14 -2 11 -14 -8 -45 61 -37 81 7 16 9 15 15 -7 9
-27 14 -11 10 30 -2 25 -2 25 18 7 20 -18 20 -18 16 0 -3 10 1 26 9 36 12 18
15 17 39 -15 28 -37 78 -154 78 -184 0 -10 -17 15 -38 55 -27 55 -43 75 -60
77 -22 4 -22 3 -6 -21 9 -14 19 -23 22 -20 3 2 15 -17 28 -43 27 -55 32 -88 8
-54 -9 13 -25 33 -37 45 -12 12 -30 33 -40 47 -17 25 -17 24 -1 -9 25 -53 94
-122 118 -119 29 4 31 36 8 95 -11 26 -27 70 -37 96 -22 61 -59 106 -105 124
-19 8 -44 23 -55 33 -13 12 -25 16 -34 11z m112 -86 c-6 -15 -54 -48 -60 -41
-13 13 20 56 42 54 13 -1 21 -7 18 -13z"/>
<path d="M462 971 c18 -16 35 -27 38 -24 6 6 -47 53 -61 53 -5 0 5 -13 23 -29z"/>
<path d="M215 959 c-10 -16 -2 -19 51 -23 27 -2 34 -1 16 1 -28 4 -31 7 -21
19 9 11 7 14 -14 14 -14 0 -29 -5 -32 -11z"/>
<path d="M828 932 c-5 -32 0 -52 11 -52 7 0 5 69 -2 77 -3 2 -7 -9 -9 -25z"/>
<path d="M216 908 c-20 -29 -20 -41 2 -66 19 -24 102 -35 109 -15 3 7 -11 11
-40 11 -24 -1 -49 2 -55 6 -16 9 -15 59 0 74 7 7 9 12 6 12 -4 0 -14 -10 -22
-22z"/>
<path d="M670 924 c0 -20 43 -99 84 -152 22 -30 51 -70 64 -88 15 -23 48 -47
100 -73 79 -40 132 -82 84 -67 -30 10 -30 -17 0 -38 17 -12 18 -16 6 -16 -8 0
-23 15 -32 33 -8 17 -16 25 -16 17 0 -44 63 -81 76 -45 14 36 -7 64 -89 117
-100 64 -200 170 -245 259 -17 35 -32 59 -32 53z"/>
<path d="M2780 921 c0 -6 7 -11 15 -11 8 0 15 -5 15 -11 0 -6 -7 -8 -16 -5 -9
3 -22 6 -30 6 -9 0 -12 5 -8 12 4 7 3 8 -5 4 -6 -4 -9 -12 -6 -17 4 -5 -2 -9
-11 -9 -16 0 -16 -1 0 -19 30 -33 16 -45 -50 -44 -32 0 -45 -1 -29 -4 17 -3
35 -9 41 -14 6 -5 18 -7 25 -4 8 3 21 0 29 -5 23 -14 -6 -38 -66 -55 -27 -7
-40 -14 -29 -14 11 -1 30 -4 42 -7 28 -8 89 48 76 68 -4 7 -9 22 -10 33 0 11
-4 30 -8 41 -6 19 -3 21 29 20 42 -1 49 11 19 32 -15 9 -23 10 -23 3z"/>
<path d="M542 853 c7 -15 15 -30 18 -33 3 -3 14 -24 24 -48 11 -23 21 -40 24
-38 5 6 -58 135 -70 142 -5 3 -3 -7 4 -23z"/>
<path d="M1915 859 c-14 -44 -22 -140 -11 -129 9 9 27 139 20 148 -1 2 -5 -7
-9 -19z"/>
<path d="M2325 835 c-33 -35 -46 -59 -59 -112 -9 -37 -21 -70 -27 -74 -6 -3
-10 -10 -10 -15 1 -5 -5 -9 -11 -9 -7 0 -21 -17 -30 -37 -16 -37 -38 -51 -38
-25 0 12 37 78 49 87 31 23 82 150 60 150 -5 0 -9 -8 -9 -17 0 -18 -18 -51
-77 -138 -18 -27 -33 -59 -33 -72 0 -13 -4 -23 -10 -23 -5 0 -10 -4 -10 -10 0
-5 11 -10 25 -10 34 0 95 76 121 150 11 33 23 58 26 55 3 -3 9 7 13 22 3 15
22 49 41 75 43 60 33 62 -21 3z"/>
<path d="M160 815 c-11 -13 -8 -15 18 -15 33 0 50 14 31 26 -8 4 -9 3 -5 -4 5
-8 -1 -12 -16 -12 -18 0 -20 2 -8 10 8 5 10 10 4 10 -6 0 -17 -7 -24 -15z"/>
<path d="M971 793 c-1 -12 -5 -24 -10 -28 -18 -11 11 -65 52 -97 23 -18 43
-31 45 -28 2 3 10 -8 18 -25 11 -25 13 -25 8 -5 -6 24 -50 90 -60 90 -3 0 -2
-5 2 -12 4 -7 3 -8 -5 -4 -6 4 -9 12 -5 17 3 6 -1 18 -9 27 -8 9 -20 33 -25
52 -7 24 -10 28 -11 13z"/>
<path d="M1713 788 c-28 -31 -39 -56 -47 -103 -6 -37 -5 -36 18 18 13 31 31
68 40 82 20 31 16 32 -11 3z"/>
<path d="M895 739 c14 -35 30 -68 36 -74 8 -7 9 -5 2 10 -6 11 -13 36 -17 56
-3 20 -15 44 -26 54 -18 16 -17 12 5 -46z"/>
<path d="M720 770 c0 -14 9 -49 20 -78 11 -29 20 -60 20 -70 0 -10 6 -27 14
-38 13 -16 18 -17 35 -7 17 11 22 9 39 -15 34 -49 34 -52 -5 -30 -34 20 -32
17 22 -37 33 -33 62 -59 64 -57 3 1 -1 8 -7 14 -23 23 -12 29 16 10 15 -10 33
-22 41 -27 14 -8 -43 53 -144 155 -40 41 -62 74 -84 130 -20 48 -31 66 -31 50z"/>
<path d="M172 760 c3 -22 8 -25 51 -28 29 -2 47 1 43 6 -3 5 3 12 14 15 11 3
20 11 20 19 0 9 -2 10 -8 1 -4 -6 -28 -14 -53 -18 -39 -6 -49 -4 -58 12 -10
16 -11 15 -9 -7z"/>
<path d="M1577 743 c-8 -16 -17 -41 -20 -58 -7 -33 -9 -37 29 53 17 39 10 43
-9 5z"/>
<path d="M1962 719 c-23 -29 -42 -57 -42 -64 0 -7 -16 -36 -35 -64 -27 -39
-35 -60 -34 -93 l1 -43 13 53 c7 29 24 65 38 80 27 29 111 171 104 178 -2 2
-22 -19 -45 -47z"/>
<path d="M1052 717 c41 -37 77 -107 78 -149 0 -15 5 -30 10 -33 15 -9 12 41
-5 81 -8 20 -13 39 -10 43 6 10 -53 65 -85 80 -19 9 -17 4 12 -22z"/>
<path d="M1801 688 c-57 -61 -59 -68 -11 -43 25 13 79 92 68 99 -2 1 -27 -24
-57 -56z"/>
<path d="M2487 707 c-38 -59 -92 -121 -76 -87 6 14 19 34 29 45 55 63 45 72
-14 13 -59 -59 -67 -71 -64 -99 2 -18 8 -34 15 -36 11 -4 148 195 141 203 -2
1 -16 -16 -31 -39z"/>
<path d="M2050 695 c-13 -14 -21 -27 -18 -30 2 -3 17 9 33 25 16 17 24 30 19
30 -6 0 -21 -11 -34 -25z"/>
<path d="M1499 672 c-49 -49 -55 -83 -29 -162 11 -36 20 -72 20 -81 0 -9 7
-16 15 -16 12 0 14 10 9 51 -7 52 -14 74 -14 42 0 -9 -4 -14 -10 -11 -18 11
-11 98 11 134 19 32 41 81 36 81 -1 0 -18 -17 -38 -38z"/>
<path d="M1322 677 c-12 -13 -22 -30 -22 -38 1 -10 3 -9 11 4 6 9 14 15 19 12
9 -5 25 33 18 41 -3 2 -14 -6 -26 -19z"/>
<path d="M640 631 c0 -21 23 -70 31 -65 5 3 6 -1 4 -8 -3 -8 7 -25 22 -38 l27
-25 -17 28 c-21 32 -15 34 24 6 43 -30 35 -15 -16 32 -24 22 -47 49 -50 60 -6
19 -25 27 -25 10z"/>
<path d="M1381 582 c4 -21 17 -58 28 -83 12 -26 21 -66 21 -99 1 -53 1 -54 15
-30 22 39 18 72 -20 144 -19 37 -35 76 -35 87 0 10 -4 19 -9 19 -5 0 -5 -16 0
-38z"/>
<path d="M1327 603 c-3 -5 7 -47 23 -94 17 -46 30 -93 30 -104 0 -14 3 -16 12
-7 9 9 9 19 0 44 -6 18 -22 64 -35 102 -13 38 -27 65 -30 59z"/>
<path d="M1765 578 c-22 -22 -36 -29 -57 -26 -30 5 -37 -9 -16 -30 16 -16 52
-16 42 0 -5 8 -2 9 10 5 9 -4 14 -3 11 2 -5 9 32 27 48 23 5 -1 6 2 3 7 -4 5
-1 11 5 13 11 4 2 39 -10 37 -3 -1 -19 -15 -36 -31z"/>
<path d="M1180 580 c0 -8 9 -30 20 -47 11 -18 17 -33 14 -33 -3 0 4 -17 16
-37 l22 -38 -32 34 c-22 23 -35 30 -42 23 -12 -12 26 -82 45 -82 6 0 0 12 -14
28 -23 26 -23 26 9 -2 24 -22 35 -27 43 -19 9 9 6 20 -10 42 -12 17 -24 39
-26 50 -5 28 -44 99 -45 81z"/>
<path d="M2064 555 c-16 -39 -19 -95 -4 -95 6 0 10 18 10 40 0 23 7 52 16 65
11 17 12 25 5 25 -7 0 -19 -16 -27 -35z"/>
<path d="M1540 574 c0 -6 7 -33 15 -60 8 -27 15 -62 15 -77 0 -15 7 -41 15
-57 l15 -29 -48 1 c-26 1 -64 -5 -84 -12 -32 -12 -44 -11 -95 4 -149 45 -222
55 -387 53 -89 0 -145 -4 -126 -8 22 -4 27 -7 13 -8 -31 -1 -103 -31 -103 -42
0 -5 12 -9 28 -8 23 0 24 1 7 8 -17 7 -13 10 23 20 23 7 48 11 55 10 6 -1 26
4 42 11 63 26 439 -19 420 -50 -4 -6 -23 -10 -43 -11 -20 0 -64 -7 -97 -15
-58 -14 -59 -14 -10 -8 99 13 155 9 178 -14 11 -12 19 -24 16 -26 -8 -9 -132
-10 -174 -3 -96 18 -98 19 -84 28 8 5 9 9 3 9 -17 0 -37 -27 -25 -34 18 -12
106 -28 178 -33 124 -9 150 9 93 65 -23 24 -26 31 -15 36 23 9 45 -4 45 -27 0
-11 3 -18 6 -15 3 3 16 -5 30 -19 21 -21 32 -24 74 -21 28 1 50 -1 50 -5 0
-11 42 -25 58 -20 25 10 11 22 -18 16 -18 -3 -30 -1 -30 5 0 6 10 12 23 14 14
2 23 11 25 25 2 12 9 20 15 18 37 -11 77 -14 72 -5 -8 13 31 13 55 0 13 -7 21
-7 26 2 4 6 3 8 -4 4 -6 -3 -13 -2 -16 3 -8 12 66 20 81 9 7 -5 20 -8 30 -5
15 4 14 5 -4 6 -25 1 -25 27 1 46 15 11 14 13 -6 19 -37 10 -176 7 -183 -4 -3
-5 -25 -10 -49 -10 -41 0 -43 2 -54 39 -7 21 -12 49 -12 61 0 28 -20 102 -32
115 -5 5 -8 5 -8 -1z m320 -219 c-7 -8 -21 -15 -32 -15 -10 0 -17 -4 -14 -9
14 -21 -147 -27 -195 -7 -28 12 -31 16 -17 21 10 4 36 5 58 3 26 -2 41 1 44 9
4 9 30 13 87 13 71 0 80 -2 69 -15z m-262 -38 l22 -24 -22 -11 c-77 -37 -199
-8 -145 36 16 13 43 19 88 21 25 1 42 -6 57 -22z"/>
<path d="M330 560 c14 -9 109 -15 99 -6 -2 2 -29 6 -59 9 -37 4 -50 3 -40 -3z"/>
<path d="M1929 542 c-8 -10 -19 -27 -23 -37 -5 -14 4 -9 28 14 20 19 36 36 36
38 0 10 -28 0 -41 -15z"/>
<path d="M1601 513 c0 -23 4 -45 9 -48 11 -7 11 16 0 60 -7 28 -8 28 -9 -12z"/>
<path d="M796 503 c41 -56 44 -59 44 -42 0 16 -51 79 -64 79 -4 0 5 -17 20
-37z"/>
<path d="M1652 505 c0 -16 3 -41 7 -55 7 -24 8 -25 15 -3 4 12 1 35 -8 55
l-14 33 0 -30z"/>
<path d="M2562 498 c-17 -17 -15 -23 13 -36 38 -18 65 -15 65 6 0 24 -19 42
-45 42 -12 0 -26 -5 -33 -12z m59 -13 c0 -5 -7 -12 -16 -13 -23 -5 -47 6 -40
19 8 13 56 8 56 -6z"/>
<path d="M2675 501 c-8 -14 32 -33 55 -26 33 11 22 21 -16 17 -26 -3 -35 -1
-30 7 4 6 5 11 2 11 -3 0 -7 -4 -11 -9z"/>
<path d="M1792 475 c-17 -36 -15 -53 2 -35 18 19 30 60 18 60 -5 0 -14 -11
-20 -25z"/>
<path d="M1720 446 c0 -30 4 -46 9 -40 18 19 21 50 6 70 -13 18 -14 15 -15
-30z"/>
<path d="M2172 462 c-12 -12 -40 -21 -78 -25 -32 -4 -75 -9 -94 -13 -38 -6
-90 -33 -90 -46 0 -18 42 -48 87 -61 26 -8 49 -20 51 -27 3 -9 -1 -11 -12 -7
-10 4 -27 7 -39 7 -18 0 -19 2 -7 11 12 9 12 10 1 7 -8 -3 -16 -8 -18 -14 -4
-12 53 -37 66 -29 13 8 81 -21 81 -34 0 -6 -3 -11 -7 -11 -5 -1 -28 -5 -52 -9
-34 -7 -53 -5 -78 7 -24 11 -30 18 -21 25 10 6 10 8 -1 5 -29 -8 -21 -26 21
-48 34 -18 53 -21 92 -16 80 9 87 38 21 77 -20 12 -34 23 -32 25 1 2 36 -8 76
-21 40 -14 82 -25 92 -25 24 0 35 25 20 44 -6 7 -7 16 -3 21 4 4 -4 5 -18 1
-49 -14 -118 -18 -136 -8 -18 10 -17 11 8 21 39 15 187 12 243 -5 53 -15 111
-19 119 -6 7 12 -17 55 -32 58 -7 1 -8 0 -2 -3 23 -11 8 -23 -29 -23 -25 0
-47 7 -62 21 l-24 20 50 -5 c40 -4 45 -3 25 5 -14 6 -39 8 -56 6 -22 -4 -33 0
-42 14 -10 16 -9 19 13 25 14 3 25 10 25 16 0 5 -5 6 -11 3 -6 -4 -9 0 -7 11
3 17 -5 19 -59 22 -50 2 -66 -1 -81 -16z m128 -2 c0 -5 -8 -10 -17 -11 -15 0
-15 -2 2 -9 17 -7 14 -9 -15 -11 -19 -2 -48 -2 -64 -1 -46 4 -24 -9 30 -16 46
-7 74 -31 37 -33 -16 -1 -16 -2 0 -6 39 -10 12 -19 -65 -21 -46 -1 -99 -8
-118 -14 -43 -15 -58 -13 -121 16 -43 20 -47 25 -34 36 16 13 92 30 156 35 51
4 99 15 98 23 -1 4 -1 10 0 15 2 11 111 8 111 -3z m45 -120 c43 -22 36 -26
-14 -9 -17 6 -31 15 -31 20 0 12 0 12 45 -11z m-105 -64 c0 -17 -18 -25 -44
-18 -17 5 -16 6 5 18 31 17 39 17 39 0z"/>
<path d="M365 410 c-4 -6 -5 -12 -4 -14 14 -9 62 -26 72 -25 7 0 3 4 -8 9 -19
8 -19 9 2 9 12 1 24 5 28 10 3 6 -9 7 -31 4 -24 -4 -39 -2 -44 7 -6 9 -9 9
-15 0z"/>
<path d="M685 370 c-4 -7 -3 -16 3 -22 13 -13 54 0 49 15 -5 16 -43 21 -52 7z"/>
<path d="M638 360 c-2 -6 -16 -12 -31 -14 -33 -3 -45 -14 -24 -21 19 -8 80 22
72 35 -8 13 -12 13 -17 0z"/>
<path d="M845 330 c-25 -26 -27 -33 -17 -54 21 -46 55 -60 132 -52 96 9 124
20 116 49 -4 19 -2 23 16 23 26 -1 36 22 12 31 -10 4 -21 0 -29 -10 -7 -10
-16 -13 -26 -6 -8 5 -21 8 -29 8 -9 0 -7 -3 5 -9 12 -4 26 -15 33 -23 11 -13
9 -16 -10 -23 -22 -7 -106 -15 -157 -16 -14 0 -31 8 -38 18 -17 24 -16 32 5
37 15 4 15 5 -2 6 -18 1 -18 3 4 26 13 14 21 25 19 25 -3 0 -18 -13 -34 -30z"/>
<path d="M1928 302 c19 -13 -13 -25 -42 -16 -19 6 -19 5 -7 -10 19 -23 66 -17
66 8 0 11 -7 21 -15 23 -12 4 -12 3 -2 -5z"/>
<path d="M677 283 c-3 -5 15 -6 39 -4 36 2 44 0 44 -14 0 -14 -9 -16 -55 -13
-39 2 -55 -1 -55 -9 0 -9 16 -13 44 -13 60 0 76 8 76 36 0 22 -4 24 -44 24
-25 0 -47 -3 -49 -7z"/>
<path d="M1730 264 c0 -18 22 -31 67 -38 40 -6 65 5 43 19 -5 3 -10 1 -10 -4
0 -19 -17 -12 -23 9 -3 11 -11 20 -19 20 -10 0 -9 -3 2 -10 16 -10 8 -14 -25
-10 -11 1 -23 7 -27 14 -6 8 -8 8 -8 0z"/>
<path d="M1563 194 c2 -20 -10 -22 -53 -10 l-25 7 24 -21 c13 -11 34 -20 45
-18 23 3 34 34 18 50 -7 7 -10 4 -9 -8z"/>
<path d="M1119 187 c13 -13 88 -19 95 -8 3 5 -4 7 -16 4 -15 -3 -19 -2 -11 4
8 6 -3 9 -32 9 -24 -1 -41 -4 -36 -9z"/>
</g>
</svg>
