<!DOCTYPE svg PUBLIC "-//W3C//DTD SVG 1.1//EN" "http://www.w3.org/Graphics/SVG/1.1/DTD/svg11.dtd">
<!-- Uploaded to: SVG Repo, www.svgrepo.com, Transformed by: SVG Repo Mixer Tools -->
<svg height="800px" width="800px" version="1.1" id="Layer_1" xmlns="http://www.w3.org/2000/svg" xmlns:xlink="http://www.w3.org/1999/xlink" viewBox="0 0 512 512" xml:space="preserve" fill="#000000">
<g id="SVGRepo_bgCarrier" stroke-width="0"/>
<g id="SVGRepo_tracerCarrier" stroke-linecap="round" stroke-linejoin="round"/>
<g id="SVGRepo_iconCarrier"> <g transform="translate(1)"> <path style="fill:#b1c1f2;" d="M378.609,42.667c-40.96-38.4-85.333,0-85.333,0c-19.627,0-17.067-34.133-17.067-34.133 s-55.467-4.267-128,68.267l-9.387,9.387c-5.973,5.973-14.507,9.387-23.04,7.68c-8.533-1.707-15.36-7.68-1.707-25.6 c0,0-95.573,96.427,0,179.2v-51.2c0-6.827,1.707-13.653,4.267-19.627c9.387-23.04,36.693-32.427,60.587-23.893 c11.947,4.267,36.693,9.387,80.213,9.387s67.413-5.12,80.213-9.387c23.893-8.533,51.2,0.853,60.587,23.893 c2.56,5.973,4.267,12.8,4.267,19.627v51.2C494.663,128,378.609,42.667,378.609,42.667"/> <path style="fill:#ffffff;" d="M404.209,196.267c0-6.827-1.707-13.653-4.267-19.627c-9.387-23.04-36.693-32.427-60.587-23.893 c-12.8,4.267-37.547,9.387-80.213,9.387s-67.413-5.12-80.213-9.387c-23.893-8.533-51.2,0.853-60.587,23.893 c-3.413,5.973-4.267,12.8-4.267,19.627v77.653c0,53.76,4.267,112.64,44.373,151.04c14.507,13.653,31.573,24.747,47.787,35.84 s30.72,25.6,52.053,25.6s35.84-14.507,52.053-25.6c16.213-11.093,33.28-22.187,47.787-35.84c40.96-38.4,46.08-98.133,46.08-151.893 V196.267z"/> <g> <path style="fill:#FFFFFF;" d="M112.369,92.16c-6.827-2.56-9.387-9.387,1.707-23.893c0,0-94.72,96.427,0,179.2V230.4 C69.703,178.347,91.889,122.88,112.369,92.16"/> <path style="fill:#FFFFFF;" d="M223.303,460.8c-16.213-11.093-33.28-22.187-47.787-35.84c-40.107-38.4-44.373-97.28-44.373-151.04 l0-77.653c0-6.827,1.707-13.653,4.267-19.627c5.973-14.507,19.627-23.893,34.987-26.453c-21.333-3.413-43.52,5.973-52.053,26.453 c-2.56,5.973-4.267,12.8-4.267,19.627v77.653c0,53.76,4.267,112.64,44.373,151.04c14.507,13.653,31.573,24.747,47.787,35.84 s30.72,25.6,52.053,25.6c2.56,0,5.973,0,8.533-0.853C250.609,482.133,237.809,470.187,223.303,460.8"/> </g> <g> <path style="fill:#2b00ff;" d="M378.609,42.667c-17.067-16.213-34.133-18.773-48.64-16.213c10.24,1.707,20.48,5.973,31.573,16.213 c0,0,98.987,72.533,43.52,177.493v27.307C494.663,128,378.609,42.667,378.609,42.667"/> <path style="fill:#2b00ff;" d="M399.943,176.64c-8.533-20.48-30.72-29.867-52.053-26.453c14.507,2.56,28.16,11.947,34.133,26.453 c2.56,5.973,4.267,12.8,4.267,19.627v76.8c0,53.76-4.267,113.493-45.227,151.893c-13.653,13.653-30.72,24.747-46.933,35.84 c-14.507,9.387-26.453,21.333-43.52,24.747c2.56,0.853,5.973,0.853,8.533,0.853c21.333,0,35.84-14.507,52.053-25.6 c16.213-11.093,33.28-22.187,47.787-35.84c40.96-38.4,45.227-98.133,45.227-151.893v-76.8 C404.209,189.44,402.503,182.613,399.943,176.64"/> </g> <path style="fill:#ffffff;" d="M344.476,512c-5.12,0-8.533-3.413-8.533-8.533v-43.52c-0.853,0.853-1.707,1.707-3.413,1.707 l-8.533,5.12c-3.413,2.56-5.973,4.267-9.387,6.827c-13.653,10.24-28.16,20.48-47.787,20.48s-34.133-10.24-47.787-20.48 c-3.413-2.56-5.973-4.267-9.387-6.827l-7.68-5.12c-0.853-0.853-1.707-0.853-2.56-1.707v43.52c0,5.12-3.413,8.533-8.533,8.533 c-5.12,0-8.533-3.413-8.533-8.533v-59.733c0-3.413,1.707-5.973,4.267-7.68s5.973-0.853,8.533,0.853 c5.12,3.413,10.24,7.68,16.213,11.093l7.68,5.12c3.413,2.56,6.827,5.12,10.24,7.68c11.947,8.533,23.04,17.067,37.547,17.067 s25.6-8.533,37.547-17.067c3.413-2.56,6.827-5.12,10.24-7.68l8.533-5.973c5.12-3.413,11.093-6.827,16.213-11.093 c2.56-1.707,5.973-1.707,8.533-0.853c2.56,1.707,4.267,4.267,4.267,7.68v59.733C353.009,508.587,348.743,512,344.476,512z"/> <path d="M335.943,512c-5.12,0-8.533-3.413-8.533-8.533v-43.52c-0.853,0.853-1.707,1.707-3.413,1.707l-8.533,5.12 c-3.413,2.56-5.973,4.267-9.387,6.827c-13.653,10.24-28.16,20.48-47.787,20.48s-34.133-10.24-47.787-20.48 c-3.413-2.56-5.973-4.267-9.387-6.827l-7.68-5.12c-0.853-0.853-1.707-0.853-2.56-1.707v43.52c0,5.12-3.413,8.533-8.533,8.533 c-5.12,0-8.533-3.413-8.533-8.533v-59.733c0-3.413,1.707-5.973,4.267-7.68c2.56-1.707,5.973-0.853,8.533,0.853 c5.12,3.413,10.24,7.68,16.213,11.093l7.68,5.12c3.413,2.56,6.827,5.12,10.24,7.68c11.947,8.533,23.04,17.067,37.547,17.067 c14.507,0,25.6-8.533,37.547-17.067c3.413-2.56,6.827-5.12,10.24-7.68l8.533-5.973c5.12-3.413,11.093-6.827,16.213-11.093 c2.56-1.707,5.973-1.707,8.533-0.853c2.56,1.707,4.267,4.267,4.267,7.68v59.733C344.476,508.587,340.209,512,335.943,512z"/> <path d="M258.289,494.933c-19.627,0-34.133-10.24-47.787-20.48c-3.413-2.56-5.973-4.267-9.387-6.827l-8.533-5.12 c-13.653-9.387-28.16-18.773-40.96-30.72c-41.813-39.253-46.933-98.987-46.933-157.013l0.853-78.507 c0-7.68,1.707-16.213,4.267-23.04c8.533-19.627,28.16-32.427,51.2-32.427c6.827,0,13.653,0.853,20.48,3.413 c11.947,4.267,34.987,9.387,77.653,9.387s65.707-5.12,77.653-9.387c6.827-2.56,13.653-3.413,20.48-3.413 c23.04,0,42.667,12.8,51.2,32.427c3.413,7.68,4.267,15.36,4.267,23.04v76.8c0,58.88-5.973,118.613-47.787,157.867 c-12.8,11.947-27.307,21.333-40.96,30.72l-8.533,5.12c-3.413,2.56-5.973,4.267-9.387,6.827 C292.423,484.693,278.769,494.933,258.289,494.933z M161.009,157.867c-16.213,0-29.867,8.533-34.987,22.187 c-2.56,5.12-3.413,10.24-3.413,16.213v77.653c0,50.347,3.413,107.52,41.813,145.067c11.947,11.093,25.6,20.48,38.4,29.013 l8.533,5.973c3.413,2.56,6.827,5.12,10.24,7.68c11.947,8.533,23.04,17.067,37.547,17.067c14.507,0,25.6-8.533,37.547-17.067 c3.413-2.56,6.827-5.12,10.24-7.68l8.533-5.973c13.653-8.533,27.307-17.92,38.4-29.013c36.693-35.84,41.813-91.307,41.813-145.92 v-76.8c0-5.973-0.853-11.093-3.413-16.213c-5.973-13.653-18.773-22.187-34.987-22.187c-5.12,0-10.24,0.853-14.507,2.56 c-13.653,4.267-38.4,10.24-83.627,10.24s-69.973-5.973-83.627-10.24C170.396,158.72,166.129,157.867,161.009,157.867z"/> <path d="M404.209,256c-0.853,0-1.707,0-2.56-0.853c-4.267-0.853-5.973-4.267-5.973-7.68v-51.2c0-5.973-0.853-11.093-3.413-16.213 c-5.973-13.653-18.773-22.187-34.987-22.187c-5.12,0-10.24,0.853-14.507,2.56c-13.653,4.267-38.4,10.24-83.627,10.24 s-69.973-5.973-83.627-10.24c-5.12-1.707-9.387-2.56-14.507-2.56c-15.36,0-29.867,8.533-34.987,22.187 c-2.56,5.12-3.413,10.24-3.413,16.213v51.2c0,3.413-1.707,5.973-5.12,7.68c-3.413,1.707-6.827,0.853-9.387-1.707 c-29.013-24.747-43.52-53.76-45.227-85.333C60.316,110.933,105.543,64,107.249,62.293c3.413-3.413,8.533-3.413,11.947-0.853 c3.413,3.413,4.267,8.533,0.853,11.947c-5.12,7.68-5.973,11.093-5.973,11.093s0.853,0,2.56,0.853 c5.973,0.853,11.093-0.853,15.36-5.12l9.387-9.387C208.796,3.413,264.263,0,274.503,0c0.853,0,1.707,0,1.707,0 c4.267,0,8.533,4.267,7.68,9.387c0,5.973,0,18.773,5.12,23.04c0.853,0.853,0.853,0.853,1.707,0.853 c6.827-5.12,25.6-16.213,47.787-16.213c17.067,0,32.427,6.827,45.227,18.773c5.12,4.267,52.907,41.813,62.293,101.547 c5.12,38.4-5.973,76.8-34.987,114.347C409.329,255.147,406.769,256,404.209,256z M102.129,96.427 c-11.093,17.067-23.893,43.52-22.187,71.68c0.853,21.333,9.387,40.96,24.747,58.88l0.853-30.72c0-7.68,1.707-16.213,4.267-23.04 c8.533-19.627,28.16-32.427,51.2-32.427c6.827,0,13.653,0.853,20.48,3.413c11.947,4.267,34.987,9.387,77.653,9.387 s65.707-5.12,77.653-9.387c6.827-2.56,13.653-3.413,20.48-3.413c23.04,0,42.667,12.8,51.2,32.427 c3.413,7.68,4.267,15.36,4.267,23.04v23.04c14.507-26.453,20.48-52.907,16.213-78.507c-8.533-55.467-55.467-91.307-55.467-91.307 l-0.853-0.853c-10.24-9.387-22.187-14.507-34.133-14.507c-22.187,0-39.253,14.507-39.253,15.36 c-2.56,0.853-4.267,1.707-5.973,1.707c-5.973,0-11.947-2.56-16.213-6.827c-6.827-7.68-9.387-18.773-9.387-27.307 c-17.067,1.707-60.587,11.947-113.493,65.707l-9.387,9.387c-8.533,8.533-19.627,11.947-30.72,9.387 C108.103,100.693,104.689,98.987,102.129,96.427z"/> </g> </g>
</svg>